<svg width="20" height="17" viewBox="0 0 20 17" fill="none" xmlns="http://www.w3.org/2000/svg">
<path d="M12.275 0.850227C11.7437 0.697102 11.1906 1.00648 11.0375 1.53773L7.03745 15.5377C6.88433 16.069 7.1937 16.6221 7.72495 16.7752C8.2562 16.9284 8.80933 16.619 8.96245 16.0877L12.9625 2.08773C13.1156 1.55648 12.8062 1.00335 12.275 0.850227ZM14.7937 4.60335C14.4031 4.99398 14.4031 5.62835 14.7937 6.01898L17.5843 8.81273L14.7906 11.6065C14.4 11.9971 14.4 12.6315 14.7906 13.0221C15.1812 13.4127 15.8156 13.4127 16.2062 13.0221L19.7062 9.5221C20.0968 9.13148 20.0968 8.4971 19.7062 8.10648L16.2062 4.60648C15.8156 4.21585 15.1812 4.21585 14.7906 4.60648L14.7937 4.60335ZM5.20933 4.60335C4.8187 4.21273 4.18433 4.21273 3.7937 4.60335L0.293701 8.10335C-0.0969238 8.49398 -0.0969238 9.12835 0.293701 9.51898L3.7937 13.019C4.18433 13.4096 4.8187 13.4096 5.20933 13.019C5.59995 12.6284 5.59995 11.994 5.20933 11.6034L2.41558 8.81273L5.20933 6.01898C5.59995 5.62835 5.59995 4.99398 5.20933 4.60335Z" />
</svg>
