<svg width="14" height="15" viewBox="0 0 14 15" fill="none" xmlns="http://www.w3.org/2000/svg">
<path d="M3.5 0.25C2.05078 0.25 0.875 1.42578 0.875 2.875V11.625C0.875 13.0742 2.05078 14.25 3.5 14.25H11.375H12.25C12.734 14.25 13.125 13.859 13.125 13.375C13.125 12.891 12.734 12.5 12.25 12.5V10.75C12.734 10.75 13.125 10.359 13.125 9.875V1.125C13.125 0.641016 12.734 0.25 12.25 0.25H11.375H3.5ZM3.5 10.75H10.5V12.5H3.5C3.01602 12.5 2.625 12.109 2.625 11.625C2.625 11.141 3.01602 10.75 3.5 10.75ZM4.375 4.1875C4.375 3.94688 4.57188 3.75 4.8125 3.75H10.0625C10.3031 3.75 10.5 3.94688 10.5 4.1875C10.5 4.42812 10.3031 4.625 10.0625 4.625H4.8125C4.57188 4.625 4.375 4.42812 4.375 4.1875ZM4.8125 5.5H10.0625C10.3031 5.5 10.5 5.69688 10.5 5.9375C10.5 6.17812 10.3031 6.375 10.0625 6.375H4.8125C4.57188 6.375 4.375 6.17812 4.375 5.9375C4.375 5.69688 4.57188 5.5 4.8125 5.5Z" fill="white"/>
</svg>
