<svg width="13" height="14" viewBox="0 0 13 14" fill="none" xmlns="http://www.w3.org/2000/svg">
<path d="M3.875 0C4.35898 0 4.75 0.391016 4.75 0.875V1.75H8.25V0.875C8.25 0.391016 8.64102 0 9.125 0C9.60898 0 10 0.391016 10 0.875V1.75H11.3125C12.0371 1.75 12.625 2.33789 12.625 3.0625V4.375H0.375V3.0625C0.375 2.33789 0.962891 1.75 1.6875 1.75H3V0.875C3 0.391016 3.39102 0 3.875 0ZM0.375 5.25H12.625V12.6875C12.625 13.4121 12.0371 14 11.3125 14H1.6875C0.962891 14 0.375 13.4121 0.375 12.6875V5.25ZM2.125 7.4375V8.3125C2.125 8.55313 2.32187 8.75 2.5625 8.75H3.4375C3.67812 8.75 3.875 8.55313 3.875 8.3125V7.4375C3.875 7.19688 3.67812 7 3.4375 7H2.5625C2.32187 7 2.125 7.19688 2.125 7.4375ZM5.625 7.4375V8.3125C5.625 8.55313 5.82188 8.75 6.0625 8.75H6.9375C7.17812 8.75 7.375 8.55313 7.375 8.3125V7.4375C7.375 7.19688 7.17812 7 6.9375 7H6.0625C5.82188 7 5.625 7.19688 5.625 7.4375ZM9.5625 7C9.32187 7 9.125 7.19688 9.125 7.4375V8.3125C9.125 8.55313 9.32187 8.75 9.5625 8.75H10.4375C10.6781 8.75 10.875 8.55313 10.875 8.3125V7.4375C10.875 7.19688 10.6781 7 10.4375 7H9.5625ZM2.125 10.9375V11.8125C2.125 12.0531 2.32187 12.25 2.5625 12.25H3.4375C3.67812 12.25 3.875 12.0531 3.875 11.8125V10.9375C3.875 10.6969 3.67812 10.5 3.4375 10.5H2.5625C2.32187 10.5 2.125 10.6969 2.125 10.9375ZM6.0625 10.5C5.82188 10.5 5.625 10.6969 5.625 10.9375V11.8125C5.625 12.0531 5.82188 12.25 6.0625 12.25H6.9375C7.17812 12.25 7.375 12.0531 7.375 11.8125V10.9375C7.375 10.6969 7.17812 10.5 6.9375 10.5H6.0625ZM9.125 10.9375V11.8125C9.125 12.0531 9.32187 12.25 9.5625 12.25H10.4375C10.6781 12.25 10.875 12.0531 10.875 11.8125V10.9375C10.875 10.6969 10.6781 10.5 10.4375 10.5H9.5625C9.32187 10.5 9.125 10.6969 9.125 10.9375Z" />
</svg>
