<svg width="25" height="19" viewBox="0 0 25 19" fill="none" xmlns="http://www.w3.org/2000/svg">
<path d="M22.6484 9.76973C24.8555 7.5627 24.8555 3.98848 22.6484 1.78145C20.6953 -0.171673 17.6172 -0.425579 15.3711 1.17989L15.3086 1.22286C14.7461 1.6252 14.6172 2.40645 15.0195 2.96505C15.4219 3.52364 16.2031 3.65645 16.7617 3.25411L16.8242 3.21114C18.0781 2.31661 19.793 2.45723 20.8789 3.54708C22.1094 4.77755 22.1094 6.76973 20.8789 8.0002L16.4961 12.3908C15.2656 13.6213 13.2734 13.6213 12.043 12.3908C10.9531 11.301 10.8125 9.58614 11.707 8.33614L11.75 8.27364C12.1523 7.71114 12.0195 6.92989 11.4609 6.53145C10.9023 6.13302 10.1172 6.26192 9.71875 6.82051L9.67578 6.88302C8.06641 9.1252 8.32031 12.2033 10.2734 14.1565C12.4805 16.3635 16.0547 16.3635 18.2617 14.1565L22.6484 9.76973ZM2.35156 8.85567C0.144531 11.0627 0.144531 14.6369 2.35156 16.844C4.30469 18.7971 7.38281 19.051 9.62891 17.4455L9.69141 17.4025C10.2539 17.0002 10.3828 16.219 9.98047 15.6604C9.57812 15.1018 8.79688 14.969 8.23828 15.3713L8.17578 15.4143C6.92188 16.3088 5.20703 16.1682 4.12109 15.0783C2.89062 13.844 2.89062 11.8518 4.12109 10.6213L8.50391 6.23458C9.73438 5.00411 11.7266 5.00411 12.957 6.23458C14.0469 7.32442 14.1875 9.03927 13.293 10.2932L13.25 10.3557C12.8477 10.9182 12.9805 11.6994 13.5391 12.0979C14.0977 12.4963 14.8828 12.3674 15.2812 11.8088L15.3242 11.7463C16.9336 9.5002 16.6797 6.42208 14.7266 4.46895C12.5195 2.26192 8.94531 2.26192 6.73828 4.46895L2.35156 8.85567Z" fill="white"/>
</svg>
