<svg width="22" height="21" viewBox="0 0 22 21" fill="none" xmlns="http://www.w3.org/2000/svg">
<path d="M10.875 9.6875V0.960938C10.875 0.609375 11.1484 0.3125 11.5 0.3125C16.332 0.3125 20.25 4.23047 20.25 9.0625C20.25 9.41406 19.9531 9.6875 19.6016 9.6875H10.875ZM0.25 10.9375C0.25 6.19922 3.76953 2.27734 8.33594 1.65234C8.69531 1.60156 9 1.89062 9 2.25391V11.5625L15.1133 17.6758C15.375 17.9375 15.3555 18.3672 15.0547 18.5781C13.5234 19.6719 11.6484 20.3125 9.625 20.3125C4.44922 20.3125 0.25 16.1172 0.25 10.9375ZM20.8125 11.5625C21.1758 11.5625 21.4609 11.8672 21.4141 12.2266C21.1133 14.4102 20.0625 16.3516 18.5273 17.7852C18.293 18.0039 17.9258 17.9883 17.6992 17.7578L11.5 11.5625H20.8125Z" fill="#2563EB"/>
</svg>
