<svg width="13" height="13" viewBox="0 0 13 13" fill="none" xmlns="http://www.w3.org/2000/svg">
<path d="M6.01562 0.5C7.60692 0.5 9.13305 1.13214 10.2583 2.25736C11.3835 3.38258 12.0156 4.9087 12.0156 6.5C12.0156 8.0913 11.3835 9.61742 10.2583 10.7426C9.13305 11.8679 7.60692 12.5 6.01562 12.5C4.42433 12.5 2.8982 11.8679 1.77298 10.7426C0.647766 9.61742 0.015625 8.0913 0.015625 6.5C0.015625 4.9087 0.647766 3.38258 1.77298 2.25736C2.8982 1.13214 4.42433 0.5 6.01562 0.5ZM5.45312 3.3125V6.5C5.45312 6.6875 5.54688 6.86328 5.70391 6.96875L7.95391 8.46875C8.21172 8.64219 8.56094 8.57187 8.73438 8.31172C8.90781 8.05156 8.8375 7.70469 8.57734 7.53125L6.57812 6.2V3.3125C6.57812 3.00078 6.32734 2.75 6.01562 2.75C5.70391 2.75 5.45312 3.00078 5.45312 3.3125Z" />
</svg>
