<svg width="18" height="15" viewBox="0 0 18 15" fill="none" xmlns="http://www.w3.org/2000/svg">
<g clip-path="url(#clip0_68_4759)">
<path d="M10.9904 0.782812C10.5256 0.648828 10.0416 0.919531 9.90762 1.38437L6.40762 13.6344C6.27363 14.0992 6.54434 14.5832 7.00918 14.7172C7.47402 14.8512 7.95801 14.5805 8.09199 14.1156L11.592 1.86562C11.726 1.40078 11.4553 0.916797 10.9904 0.782812ZM13.1943 4.0668C12.8525 4.40859 12.8525 4.96367 13.1943 5.30547L15.6361 7.75L13.1916 10.1945C12.8498 10.5363 12.8498 11.0914 13.1916 11.4332C13.5334 11.775 14.0885 11.775 14.4303 11.4332L17.4928 8.3707C17.8346 8.02891 17.8346 7.47383 17.4928 7.13203L14.4303 4.06953C14.0885 3.72773 13.5334 3.72773 13.1916 4.06953L13.1943 4.0668ZM4.80801 4.0668C4.46621 3.725 3.91113 3.725 3.56934 4.0668L0.506836 7.1293C0.165039 7.47109 0.165039 8.02617 0.506836 8.36797L3.56934 11.4305C3.91113 11.7723 4.46621 11.7723 4.80801 11.4305C5.1498 11.0887 5.1498 10.5336 4.80801 10.1918L2.36348 7.75L4.80801 5.30547C5.1498 4.96367 5.1498 4.40859 4.80801 4.0668Z" />
</g>
<defs>
<clipPath id="clip0_68_4759">
<path d="M0.25 0.75H17.75V14.75H0.25V0.75Z" fill="white"/>
</clipPath>
</defs>
</svg>
