<svg width="26" height="21" viewBox="0 0 26 21" fill="none" xmlns="http://www.w3.org/2000/svg">
<path d="M15.8438 0.797036C15.1797 0.60563 14.4883 0.992349 14.2969 1.65641L9.29688 19.1564C9.10547 19.8205 9.49219 20.5119 10.1562 20.7033C10.8203 20.8947 11.5117 20.508 11.7031 19.8439L16.7031 2.34391C16.8945 1.67985 16.5078 0.988442 15.8438 0.797036ZM18.9922 5.48844C18.5039 5.97672 18.5039 6.76969 18.9922 7.25797L22.4805 10.7502L18.9883 14.2423C18.5 14.7306 18.5 15.5236 18.9883 16.0119C19.4766 16.5002 20.2695 16.5002 20.7578 16.0119L25.1328 11.6369C25.6211 11.1486 25.6211 10.3556 25.1328 9.86735L20.7578 5.49235C20.2695 5.00407 19.4766 5.00407 18.9883 5.49235L18.9922 5.48844ZM7.01172 5.48844C6.52344 5.00016 5.73047 5.00016 5.24219 5.48844L0.867188 9.86344C0.378906 10.3517 0.378906 11.1447 0.867188 11.633L5.24219 16.008C5.73047 16.4963 6.52344 16.4963 7.01172 16.008C7.5 15.5197 7.5 14.7267 7.01172 14.2384L3.51953 10.7502L7.01172 7.25797C7.5 6.76969 7.5 5.97672 7.01172 5.48844Z" fill="#2563EB"/>
</svg>
