<svg width="14" height="14" viewBox="0 0 16 16" fill="none" xmlns="http://www.w3.org/2000/svg">
<path d="M12.1563 0.333754C12.0731 0.337028 11.9919 0.360964 11.9202 0.403405C11.8485 0.445846 11.7884 0.50546 11.7455 0.576879C11.5903 0.854382 11.4292 1.12853 11.2623 1.39913C9.95695 3.55088 8.62845 3.30925 6.26058 2.17263L2.9737 0.625754C2.7082 0.504504 2.4187 0.625754 2.29745 0.867379L0.727079 4.42125C0.606079 4.66338 0.727079 4.978 0.968829 5.0985C1.66933 5.413 3.04683 6.066 4.25445 6.67C8.72533 8.79838 12.5188 8.67713 15.4178 3.96225H15.4181C15.5905 3.69023 15.7598 3.41621 15.9258 3.14025C16.0708 2.89863 15.998 2.58425 15.7565 2.439L12.4458 0.407504C12.3587 0.354995 12.258 0.329343 12.1563 0.333754ZM6.64683 7.99688C4.3402 8.04988 2.30333 9.23838 0.582079 12.0379C0.409561 12.3099 0.240216 12.5839 0.0740787 12.8599C-0.0704213 13.1015 0.00195374 13.4159 0.243454 13.5611L3.55408 15.5925C3.7957 15.7375 4.10933 15.6646 4.25445 15.4231C4.40986 15.1458 4.57093 14.8716 4.73758 14.6009C6.04295 12.4491 7.3717 12.6908 9.73958 13.8274L13.0262 15.3743C13.2917 15.4955 13.582 15.3743 13.7025 15.1326L15.2736 11.5789C15.3938 11.3368 15.2735 11.0228 15.0311 10.9016C14.3306 10.5871 12.9538 9.93413 11.7455 9.33013C9.92945 8.45575 8.22508 7.9605 6.64683 7.99688Z" />
</svg>
