<svg width="16" height="11" viewBox="0 0 16 11" fill="none" xmlns="http://www.w3.org/2000/svg">
<path d="M2.75 1.25C2.75 0.835156 3.08516 0.5 3.5 0.5H11H12.5C14.157 0.5 15.5 1.84297 15.5 3.5C15.5 5.15703 14.157 6.5 12.5 6.5H11.75C11.75 7.74219 10.7422 8.75 9.5 8.75H5C3.75781 8.75 2.75 7.74219 2.75 6.5V1.25ZM11.75 5H12.5C13.3273 5 14 4.32734 14 3.5C14 2.67266 13.3273 2 12.5 2H11.75V5ZM1.25 9.5H13.25C13.6648 9.5 14 9.83516 14 10.25C14 10.6648 13.6648 11 13.25 11H1.25C0.835156 11 0.5 10.6648 0.5 10.25C0.5 9.83516 0.835156 9.5 1.25 9.5Z" fill="white"/>
</svg>
