<svg width="17" height="17" viewBox="0 0 17 17" fill="none" xmlns="http://www.w3.org/2000/svg">
<path d="M9.14062 1.5C9.14062 0.946875 8.69375 0.5 8.14062 0.5C7.5875 0.5 7.14062 0.946875 7.14062 1.5V9.08438L4.84688 6.79063C4.45625 6.4 3.82188 6.4 3.43125 6.79063C3.04063 7.18125 3.04063 7.81563 3.43125 8.20625L7.43125 12.2063C7.82188 12.5969 8.45625 12.5969 8.84688 12.2063L12.8469 8.20625C13.2375 7.81563 13.2375 7.18125 12.8469 6.79063C12.4563 6.4 11.8219 6.4 11.4312 6.79063L9.14062 9.08438V1.5ZM2.14062 11.5C1.0375 11.5 0.140625 12.3969 0.140625 13.5V14.5C0.140625 15.6031 1.0375 16.5 2.14062 16.5H14.1406C15.2437 16.5 16.1406 15.6031 16.1406 14.5V13.5C16.1406 12.3969 15.2437 11.5 14.1406 11.5H10.9688L9.55313 12.9156C8.77188 13.6969 7.50625 13.6969 6.725 12.9156L5.3125 11.5H2.14062ZM13.6406 13.25C13.8395 13.25 14.0303 13.329 14.171 13.4697C14.3116 13.6103 14.3906 13.8011 14.3906 14C14.3906 14.1989 14.3116 14.3897 14.171 14.5303C14.0303 14.671 13.8395 14.75 13.6406 14.75C13.4417 14.75 13.2509 14.671 13.1103 14.5303C12.9696 14.3897 12.8906 14.1989 12.8906 14C12.8906 13.8011 12.9696 13.6103 13.1103 13.4697C13.2509 13.329 13.4417 13.25 13.6406 13.25Z"/>
</svg>
