<svg width="16" height="10" viewBox="0 0 16 10" fill="none" xmlns="http://www.w3.org/2000/svg">
<path d="M15.8338 9.30499C15.2638 9.44999 14.9113 9.31124 14.5951 8.83624C13.8851 7.77249 13.1013 6.75749 12.3451 5.72374C12.2476 5.58999 12.1463 5.45874 12.0201 5.29249C11.1251 6.49999 10.2313 7.64999 9.3926 8.84624C9.0926 9.27374 8.7776 9.45999 8.2176 9.30874L11.5826 4.79249L8.4501 0.713739C8.98885 0.608739 9.36135 0.662489 9.69135 1.14499C10.4201 2.20999 11.2238 3.22374 12.0251 4.29624C12.8313 3.22749 13.6251 2.21249 14.3751 1.15749C14.6763 0.729989 15.0001 0.567489 15.5413 0.724989C15.1313 1.26874 14.7301 1.80374 14.3263 2.33499C13.7813 3.05124 13.2463 3.77624 12.6813 4.47749C12.4801 4.72749 12.5126 4.88999 12.6926 5.12624C13.7376 6.49999 14.7701 7.88749 15.8338 9.30499ZM0.166348 4.71749C0.256348 4.26624 0.316348 3.80624 0.441348 3.36374C1.19135 0.684989 4.26635 -0.428761 6.37885 1.23124C7.61635 2.20499 7.92385 3.57749 7.8626 5.12499H0.887598C0.782598 7.90124 2.78135 9.57749 5.32885 8.72249C6.2226 8.42249 6.74885 7.72249 7.0126 6.84749C7.14635 6.40874 7.3676 6.33999 7.7801 6.46499C7.56885 7.55999 7.0901 8.47499 6.0901 9.04749C4.5901 9.90499 2.44885 9.62749 1.3226 8.43624C0.657598 7.73624 0.375098 6.86499 0.250098 5.92374C0.231348 5.77374 0.192598 5.62624 0.162598 5.47749C0.165098 5.22416 0.166348 4.97082 0.166348 4.71749ZM0.900098 4.53124H7.20385C7.1626 2.52374 5.9126 1.09749 4.20385 1.08499C2.32885 1.06999 0.981348 2.46249 0.900098 4.53124Z" />
</svg>
