<svg width="12" height="17" viewBox="0 0 12 17" fill="none" xmlns="http://www.w3.org/2000/svg">
<path d="M2 0.8125C0.896875 0.8125 0 1.70938 0 2.8125V14.8125C0 15.9156 0.896875 16.8125 2 16.8125H10C11.1031 16.8125 12 15.9156 12 14.8125V5.8125H8C7.44688 5.8125 7 5.36562 7 4.8125V0.8125H2ZM8 0.8125V4.8125H12L8 0.8125ZM3.5 8.8125H8.5C8.775 8.8125 9 9.0375 9 9.3125C9 9.5875 8.775 9.8125 8.5 9.8125H3.5C3.225 9.8125 3 9.5875 3 9.3125C3 9.0375 3.225 8.8125 3.5 8.8125ZM3.5 10.8125H8.5C8.775 10.8125 9 11.0375 9 11.3125C9 11.5875 8.775 11.8125 8.5 11.8125H3.5C3.225 11.8125 3 11.5875 3 11.3125C3 11.0375 3.225 10.8125 3.5 10.8125ZM3.5 12.8125H8.5C8.775 12.8125 9 13.0375 9 13.3125C9 13.5875 8.775 13.8125 8.5 13.8125H3.5C3.225 13.8125 3 13.5875 3 13.3125C3 13.0375 3.225 12.8125 3.5 12.8125Z" fill="white"/>
</svg>
