<svg width="17" height="13" viewBox="0 0 17 13" fill="none" xmlns="http://www.w3.org/2000/svg">
<path d="M3.33164 5.86953L0.90625 10.0258V2.375C0.90625 1.40977 1.69102 0.625 2.65625 0.625H5.86914C6.33398 0.625 6.77969 0.808203 7.10781 1.13633L7.83242 1.86094C8.16055 2.18906 8.60625 2.37227 9.07109 2.37227H12.2812C13.2465 2.37227 14.0312 3.15703 14.0312 4.12227V4.99727H4.84375C4.22031 4.99727 3.64609 5.32812 3.33164 5.8668V5.86953ZM4.08633 6.30977C4.24492 6.03906 4.53203 5.875 4.84375 5.875H15.7812C16.0957 5.875 16.3828 6.0418 16.5387 6.31523C16.6945 6.58867 16.6945 6.92227 16.5359 7.19297L13.4734 12.443C13.3176 12.7109 13.0305 12.875 12.7188 12.875H1.78125C1.4668 12.875 1.17969 12.7082 1.02383 12.4348C0.867969 12.1613 0.867969 11.8277 1.02656 11.557L4.08906 6.30703L4.08633 6.30977Z"/>
</svg>
