<svg width="16" height="10" viewBox="0 0 16 10" fill="none" xmlns="http://www.w3.org/2000/svg">
<path d="M5 0.25C2.51562 0.25 0.5 2.26562 0.5 4.75C0.5 7.23438 2.51562 9.25 5 9.25H11C13.4844 9.25 15.5 7.23438 15.5 4.75C15.5 2.26562 13.4844 0.25 11 0.25H5ZM12.125 2.6875C12.3736 2.6875 12.6121 2.78627 12.7879 2.96209C12.9637 3.1379 13.0625 3.37636 13.0625 3.625C13.0625 3.87364 12.9637 4.1121 12.7879 4.28791C12.6121 4.46373 12.3736 4.5625 12.125 4.5625C11.8764 4.5625 11.6379 4.46373 11.4621 4.28791C11.2863 4.1121 11.1875 3.87364 11.1875 3.625C11.1875 3.37636 11.2863 3.1379 11.4621 2.96209C11.6379 2.78627 11.8764 2.6875 12.125 2.6875ZM9.6875 5.875C9.6875 5.62636 9.78627 5.3879 9.96209 5.21209C10.1379 5.03627 10.3764 4.9375 10.625 4.9375C10.8736 4.9375 11.1121 5.03627 11.2879 5.21209C11.4637 5.3879 11.5625 5.62636 11.5625 5.875C11.5625 6.12364 11.4637 6.3621 11.2879 6.53791C11.1121 6.71373 10.8736 6.8125 10.625 6.8125C10.3764 6.8125 10.1379 6.71373 9.96209 6.53791C9.78627 6.3621 9.6875 6.12364 9.6875 5.875ZM4.4375 3.4375C4.4375 3.12578 4.68828 2.875 5 2.875C5.31172 2.875 5.5625 3.12578 5.5625 3.4375V4.1875H6.3125C6.62422 4.1875 6.875 4.43828 6.875 4.75C6.875 5.06172 6.62422 5.3125 6.3125 5.3125H5.5625V6.0625C5.5625 6.37422 5.31172 6.625 5 6.625C4.68828 6.625 4.4375 6.37422 4.4375 6.0625V5.3125H3.6875C3.37578 5.3125 3.125 5.06172 3.125 4.75C3.125 4.43828 3.37578 4.1875 3.6875 4.1875H4.4375V3.4375Z" fill="white"/>
</svg>
