<svg width="18" height="18" viewBox="0 0 20 20" fill="none" xmlns="http://www.w3.org/2000/svg">
<path d="M0.599824 8.59001L6.37982 2.80001L8.06982 4.50001C7.82982 5.35001 8.21982 6.28001 8.99982 6.73001V12.27C8.39982 12.61 7.99982 13.26 7.99982 14C7.99982 14.5304 8.21054 15.0391 8.58561 15.4142C8.96068 15.7893 9.46939 16 9.99982 16C10.5303 16 11.039 15.7893 11.414 15.4142C11.7891 15.0391 11.9998 14.5304 11.9998 14C11.9998 13.26 11.5998 12.61 10.9998 12.27V7.41001L13.0698 9.50001C12.9998 9.65001 12.9998 9.82001 12.9998 10C12.9998 10.5304 13.2105 11.0391 13.5856 11.4142C13.9607 11.7893 14.4694 12 14.9998 12C15.5303 12 16.039 11.7893 16.414 11.4142C16.7891 11.0391 16.9998 10.5304 16.9998 10C16.9998 9.46957 16.7891 8.96087 16.414 8.58579C16.039 8.21072 15.5303 8.00001 14.9998 8.00001C14.8198 8.00001 14.6498 8.00001 14.4998 8.07001L11.9298 5.50001C12.054 5.03684 12.0059 4.54436 11.7944 4.114C11.5829 3.68364 11.2224 3.34466 10.7798 3.16001C10.3498 3.00001 9.89982 2.96001 9.49982 3.07001L7.79982 1.38001L8.58982 0.600007C9.36982 -0.189993 10.6298 -0.189993 11.4098 0.600007L19.3998 8.59001C20.1898 9.37001 20.1898 10.63 19.3998 11.41L11.4098 19.4C10.6298 20.19 9.36982 20.19 8.58982 19.4L0.599824 11.41C-0.190176 10.63 -0.190176 9.37001 0.599824 8.59001Z"/>
</svg>
