<svg width="15" height="15" viewBox="0 0 15 15" fill="none" xmlns="http://www.w3.org/2000/svg">
<path d="M9.14062 0.5C8.65664 0.5 8.26562 0.891016 8.26562 1.375C8.26562 1.85898 8.65664 2.25 9.14062 2.25H11.402L5.89766 7.75703C5.55586 8.09883 5.55586 8.65391 5.89766 8.9957C6.23945 9.3375 6.79453 9.3375 7.13633 8.9957L12.6406 3.48867V5.75C12.6406 6.23398 13.0316 6.625 13.5156 6.625C13.9996 6.625 14.3906 6.23398 14.3906 5.75V1.375C14.3906 0.891016 13.9996 0.5 13.5156 0.5H9.14062ZM2.57812 1.375C1.36953 1.375 0.390625 2.35391 0.390625 3.5625V12.3125C0.390625 13.5211 1.36953 14.5 2.57812 14.5H11.3281C12.5367 14.5 13.5156 13.5211 13.5156 12.3125V9.25C13.5156 8.76602 13.1246 8.375 12.6406 8.375C12.1566 8.375 11.7656 8.76602 11.7656 9.25V12.3125C11.7656 12.5531 11.5688 12.75 11.3281 12.75H2.57812C2.3375 12.75 2.14062 12.5531 2.14062 12.3125V3.5625C2.14062 3.32188 2.3375 3.125 2.57812 3.125H5.64062C6.12461 3.125 6.51562 2.73398 6.51562 2.25C6.51562 1.76602 6.12461 1.375 5.64062 1.375H2.57812Z" fill="white"/>
</svg>
