<svg width="18" height="17" viewBox="0 0 18 17" fill="none" xmlns="http://www.w3.org/2000/svg">
<path d="M1.67344 10.061L8.02617 15.9919C8.28984 16.238 8.63789 16.3751 9 16.3751C9.36211 16.3751 9.71016 16.238 9.97383 15.9919L16.3266 10.061C17.3953 9.06608 18 7.67038 18 6.21139V6.00749C18 3.55007 16.2246 1.45475 13.8023 1.05046C12.1992 0.783269 10.568 1.3071 9.42188 2.45319L9 2.87507L8.57812 2.45319C7.43203 1.3071 5.80078 0.783269 4.19766 1.05046C1.77539 1.45475 0 3.55007 0 6.00749V6.21139C0 7.67038 0.604687 9.06608 1.67344 10.061Z" fill="white"/>
</svg>
