<svg width="18" height="25" viewBox="0 0 18 25" fill="none" xmlns="http://www.w3.org/2000/svg">
<path d="M12.8125 18.75C13.2625 17.2547 14.1953 15.9797 15.1188 14.7094C15.3625 14.3766 15.6063 14.0437 15.8406 13.7062C16.7688 12.3703 17.3125 10.7531 17.3125 9.00469C17.3125 4.44375 13.6187 0.75 9.0625 0.75C4.50625 0.75 0.8125 4.44375 0.8125 9C0.8125 10.7484 1.35625 12.3703 2.28438 13.7016C2.51875 14.0391 2.7625 14.3719 3.00625 14.7047C3.93437 15.975 4.86719 17.2547 5.3125 18.7453H12.8125V18.75ZM9.0625 24.75C11.1344 24.75 12.8125 23.0719 12.8125 21V20.25H5.3125V21C5.3125 23.0719 6.99062 24.75 9.0625 24.75ZM5.3125 9C5.3125 9.4125 4.975 9.75 4.5625 9.75C4.15 9.75 3.8125 9.4125 3.8125 9C3.8125 6.09844 6.16094 3.75 9.0625 3.75C9.475 3.75 9.8125 4.0875 9.8125 4.5C9.8125 4.9125 9.475 5.25 9.0625 5.25C6.99062 5.25 5.3125 6.92812 5.3125 9Z" fill="#9333EA"/>
</svg>
