<svg width="17" height="13" viewBox="0 0 17 13" fill="none" xmlns="http://www.w3.org/2000/svg">
<path d="M2.15625 0.5C1.32812 0.5 0.65625 1.17188 0.65625 2C0.65625 2.47188 0.878125 2.91562 1.25625 3.2L8.05625 8.3C8.4125 8.56563 8.9 8.56563 9.25625 8.3L16.0562 3.2C16.4344 2.91562 16.6562 2.47188 16.6562 2C16.6562 1.17188 15.9844 0.5 15.1562 0.5H2.15625ZM0.65625 4V10.5C0.65625 11.6031 1.55313 12.5 2.65625 12.5H14.6562C15.7594 12.5 16.6562 11.6031 16.6562 10.5V4L9.85625 9.1C9.14375 9.63438 8.16875 9.63438 7.45625 9.1L0.65625 4Z" fill="#DB2777"/>
</svg>
