<svg width="11" height="14" viewBox="0 0 11 14" fill="none" xmlns="http://www.w3.org/2000/svg">
<path d="M6.14805 13.65C7.55078 11.8945 10.75 7.63984 10.75 5.25C10.75 2.35156 8.39844 0 5.5 0C2.60156 0 0.25 2.35156 0.25 5.25C0.25 7.63984 3.44922 11.8945 4.85195 13.65C5.18828 14.0684 5.81172 14.0684 6.14805 13.65ZM5.5 3.5C5.96413 3.5 6.40925 3.68437 6.73744 4.01256C7.06563 4.34075 7.25 4.78587 7.25 5.25C7.25 5.71413 7.06563 6.15925 6.73744 6.48744C6.40925 6.81563 5.96413 7 5.5 7C5.03587 7 4.59075 6.81563 4.26256 6.48744C3.93437 6.15925 3.75 5.71413 3.75 5.25C3.75 4.78587 3.93437 4.34075 4.26256 4.01256C4.59075 3.68437 5.03587 3.5 5.5 3.5Z" fill="#2563EB"/>
</svg>
