<svg width="16" height="14" viewBox="0 0 16 14" fill="none" xmlns="http://www.w3.org/2000/svg">
<path d="M0.25 1.625C0.25 1.00273 0.752734 0.5 1.375 0.5H14.875C15.4973 0.5 16 1.00273 16 1.625C16 2.24727 15.4973 2.75 14.875 2.75H1.375C0.752734 2.75 0.25 2.24727 0.25 1.625ZM0.25 7.25C0.25 6.62773 0.752734 6.125 1.375 6.125H14.875C15.4973 6.125 16 6.62773 16 7.25C16 7.87227 15.4973 8.375 14.875 8.375H1.375C0.752734 8.375 0.25 7.87227 0.25 7.25ZM16 12.875C16 13.4973 15.4973 14 14.875 14H1.375C0.752734 14 0.25 13.4973 0.25 12.875C0.25 12.2527 0.752734 11.75 1.375 11.75H14.875C15.4973 11.75 16 12.2527 16 12.875Z" fill="#4B5563"/>
</svg>
