<svg width="10" height="16" viewBox="0 0 10 20" fill="none" xmlns="http://www.w3.org/2000/svg">
<path d="M6.73994 2.23C6.1396 1.51448 5.56815 0.775223 5.02694 0.0139958C5.0239 0.00966294 5.01986 0.00612666 5.01516 0.00368536C5.01046 0.00124405 5.00524 -3.05176e-05 4.99994 -3.05176e-05C4.99465 -3.05176e-05 4.98943 0.00124405 4.98473 0.00368536C4.98003 0.00612666 4.97599 0.00966294 4.97294 0.0139958C4.43176 0.775563 3.8603 1.51515 3.25994 2.231C-3.95206 11.418 4.39794 17.616 4.39794 17.616L4.46494 17.663C4.52894 18.622 4.68594 20 4.68594 20H5.31394C5.31394 20 5.47094 18.628 5.53394 17.67L5.60294 17.616C5.60294 17.616 13.9519 11.418 6.74094 2.231M4.99994 17.482C4.99994 17.482 4.62594 17.162 4.52494 17.002L4.52394 16.986L4.97694 6.984C4.97806 6.97859 4.98101 6.97374 4.98529 6.97026C4.98957 6.96677 4.99492 6.96487 5.00044 6.96487C5.00596 6.96487 5.01131 6.96677 5.01559 6.97026C5.01987 6.97374 5.02282 6.97859 5.02394 6.984L5.47594 16.986V17.003C5.37494 17.163 4.99994 17.482 4.99994 17.482Z" />
</svg>
