<svg width="12" height="11" viewBox="0 0 12 11" fill="none" xmlns="http://www.w3.org/2000/svg">
<path d="M6 0.5C6.29297 0.5 6.56484 0.65 6.72187 0.898438L11.7984 8.99375C11.9297 9.20234 12 9.44375 12 9.68984C12 10.4141 11.4141 11 10.6898 11H1.31016C0.585938 11 0 10.4141 0 9.68984C0 9.44375 0.0703125 9.20234 0.201563 8.99375L5.27812 0.898438C5.43281 0.65 5.70703 0.5 6 0.5ZM7.52344 5L6 2.57188L4.14609 5.52734L4.575 6.09922C4.725 6.29844 5.025 6.29844 5.175 6.09922L5.775 5.3C5.91562 5.11016 6.13828 5 6.375 5H7.52344Z" fill="white"/>
</svg>
