<svg width="16" height="16" viewBox="0 0 16 16" fill="none" xmlns="http://www.w3.org/2000/svg">
<path fill-rule="evenodd" clip-rule="evenodd" d="M8.00019 1.49999C6.98344 1.50035 5.98096 1.73923 5.07331 2.19742C4.16566 2.65561 3.37815 3.32034 2.77408 4.13818C2.17001 4.95602 1.76622 5.90416 1.59516 6.90642C1.4241 7.90867 1.49054 8.93707 1.78915 9.90898C2.08776 10.8809 2.6102 11.7692 3.31449 12.5025C4.01878 13.2358 4.88528 13.7937 5.84434 14.1313C6.80341 14.4688 7.82829 14.5767 8.83663 14.4462C9.84497 14.3158 10.8086 13.9506 11.6502 13.38L6.00019 6.57699V11.25C6.00019 11.4489 5.92117 11.6397 5.78052 11.7803C5.63986 11.921 5.4491 12 5.25019 12C5.05127 12 4.86051 11.921 4.71986 11.7803C4.5792 11.6397 4.50019 11.4489 4.50019 11.25V4.49999C4.50001 4.34568 4.54744 4.19506 4.636 4.06869C4.72457 3.94232 4.84996 3.84634 4.99507 3.79385C5.14019 3.74136 5.29796 3.73491 5.44688 3.77538C5.5958 3.81585 5.7286 3.90127 5.82719 4.01999L13.3012 13.02C13.4272 13.1714 13.4886 13.3662 13.4721 13.5625C13.4557 13.7588 13.3627 13.9407 13.2132 14.069C11.7207 15.3495 9.80897 16.0354 7.8429 15.9958C5.87683 15.9563 3.99421 15.1939 2.55452 13.8544C1.11482 12.5149 0.218928 10.6921 0.0378945 8.73394C-0.143139 6.77582 0.403374 4.81961 1.57308 3.23886C2.74279 1.6581 4.45373 0.563536 6.37922 0.16417C8.30471 -0.235195 10.3098 0.0886159 12.0117 1.07377C13.7136 2.05893 14.9931 3.63641 15.6057 5.50501C16.2184 7.3736 16.1214 9.4024 15.3332 11.204C15.2937 11.2943 15.2367 11.3759 15.1657 11.4442C15.0946 11.5125 15.0108 11.5661 14.919 11.602C14.8272 11.6379 14.7292 11.6553 14.6307 11.6533C14.5322 11.6514 14.435 11.63 14.3447 11.5905C14.2544 11.551 14.1728 11.494 14.1045 11.423C14.0362 11.3519 13.9826 11.2681 13.9467 11.1763C13.9108 11.0845 13.8934 10.9865 13.8953 10.888C13.8973 10.7895 13.9187 10.6923 13.9582 10.602C14.3175 9.78169 14.5021 8.89555 14.5002 7.99999C14.5002 6.27609 13.8154 4.62278 12.5964 3.4038C11.3774 2.18481 9.72409 1.49999 8.00019 1.49999ZM10.5002 3.74999C10.6991 3.74999 10.8899 3.82901 11.0305 3.96966C11.1712 4.11031 11.2502 4.30108 11.2502 4.49999V7.49999C11.2502 7.6989 11.1712 7.88967 11.0305 8.03032C10.8899 8.17097 10.6991 8.24999 10.5002 8.24999C10.3013 8.24999 10.1105 8.17097 9.96986 8.03032C9.8292 7.88967 9.75019 7.6989 9.75019 7.49999V4.49999C9.75019 4.30108 9.8292 4.11031 9.96986 3.96966C10.1105 3.82901 10.3013 3.74999 10.5002 3.74999Z"/>
</svg>
