<svg width="13" height="15" viewBox="0 0 13 15" fill="none" xmlns="http://www.w3.org/2000/svg">
<path d="M6.4999 14.3907C6.3167 14.3907 6.13076 14.3415 5.96943 14.2485L4.28232 13.2505C4.03076 13.1083 4.15381 13.0591 4.23584 13.0317C4.57217 12.9142 4.64053 12.8896 4.99873 12.6845C5.03701 12.6626 5.08623 12.6708 5.12451 12.6954L6.42061 13.4638C6.46709 13.4911 6.53271 13.4911 6.57647 13.4638L11.6269 10.5489C11.6733 10.5216 11.7034 10.4669 11.7034 10.4122V4.58252C11.7034 4.5251 11.6733 4.47314 11.6241 4.44307L6.57647 1.53096C6.52998 1.50361 6.46709 1.50361 6.42061 1.53096L1.37568 4.4458C1.32646 4.47314 1.29639 4.52783 1.29639 4.58525V10.4122C1.29639 10.4669 1.32646 10.5216 1.37568 10.5462L2.75928 11.3446C3.51123 11.7192 3.97061 11.279 3.97061 10.8333V5.08018C3.97061 4.99814 4.03623 4.93525 4.11826 4.93525H4.75811C4.8374 4.93525 4.90576 4.99814 4.90576 5.08018V10.836C4.90576 11.8368 4.35889 12.411 3.41006 12.411C3.11748 12.411 2.88779 12.411 2.24795 12.0938L0.924512 11.331C0.596387 11.1423 0.394043 10.7896 0.394043 10.4095V4.58252C0.394043 4.20518 0.596387 3.84971 0.924512 3.66104L5.96943 0.746191C6.28936 0.565723 6.71318 0.565723 7.03037 0.746191L12.0808 3.66377C12.4089 3.85244 12.6112 4.20518 12.6112 4.58525V10.4122C12.6112 10.7896 12.4089 11.1423 12.0808 11.3337L7.03037 14.2485C6.86904 14.3415 6.68584 14.3907 6.4999 14.3907ZM10.5769 8.6458C10.5769 7.55479 9.83857 7.26494 8.28818 7.05986C6.71865 6.85205 6.56006 6.74541 6.56006 6.379C6.56006 6.07549 6.69404 5.6708 7.85615 5.6708C8.89248 5.6708 9.27529 5.89502 9.43389 6.59502C9.44756 6.66064 9.50771 6.70986 9.57607 6.70986H10.2323C10.2733 6.70986 10.3116 6.69346 10.339 6.66338C10.3663 6.6333 10.38 6.59229 10.3772 6.55127C10.2761 5.34541 9.4749 4.78486 7.85615 4.78486C6.41514 4.78486 5.55654 5.39189 5.55654 6.41182C5.55654 7.5165 6.4124 7.82275 7.79326 7.95947C9.44756 8.1208 9.57607 8.36416 9.57607 8.68955C9.57607 9.25283 9.12217 9.49346 8.0585 9.49346C6.72139 9.49346 6.42881 9.15713 6.33037 8.49268C6.31943 8.42158 6.25928 8.36963 6.18545 8.36963H5.53193C5.4499 8.36963 5.38701 8.43525 5.38701 8.51455C5.38701 9.36494 5.84912 10.3794 8.06123 10.3794C9.6581 10.3767 10.5769 9.74502 10.5769 8.6458Z" fill="white"/>
</svg>
