<svg width="16" height="12" viewBox="0 0 20 14" fill="none" xmlns="http://www.w3.org/2000/svg">
<path d="M11.2 13.666H18.6C18.836 13.666 19.062 13.583 19.267 13.466C19.471 13.349 19.682 13.202 19.8 13C19.918 12.797 20 12.567 20 12.333C20 12.099 19.918 11.869 19.8 11.666L14.8 3.06601C14.6909 2.87009 14.5291 2.70866 14.333 2.60001C14.1083 2.47545 13.8568 2.40685 13.6 2.40001C13.364 2.40001 13.138 2.48301 12.933 2.60001C12.7372 2.70881 12.5758 2.87023 12.467 3.06601L11.2 5.26601L8.667 1.00001C8.549 0.797008 8.405 0.583008 8.2 0.466008C7.995 0.349008 7.77 0.333008 7.533 0.333008C7.297 0.333008 7.071 0.349008 6.867 0.466008C6.663 0.583008 6.451 0.796008 6.333 1.00001L0.133 11.666C0.0149999 11.869 0 12.099 0 12.333C0 12.567 0.0149999 12.797 0.133 13C0.251 13.202 0.463 13.35 0.667 13.466C0.871 13.582 1.097 13.666 1.333 13.666H6C7.85 13.666 9.195 12.836 10.133 11.266L12.4 7.33301L13.6 5.26601L17.267 11.533H12.4L11.2 13.666ZM5.933 11.533H2.667L7.533 3.13301L10 7.33301L8.366 10.181C7.743 11.201 7.033 11.533 5.933 11.533Z"/>
</svg>
