<svg width="20" height="19" viewBox="0 0 20 19" fill="none" xmlns="http://www.w3.org/2000/svg">
<path d="M11.1941 13.6558C12.1539 13.5186 13.0187 12.9737 13.5566 12.1476L19.2414 3.35497C19.6844 2.66943 19.5719 1.76239 18.9742 1.20341C18.3766 0.644425 17.466 0.595207 16.8121 1.08739L8.49062 7.33114C7.64687 7.96396 7.14766 8.95185 7.14062 10.0065L11.1941 13.6558ZM10.5051 14.5487L6.42695 10.8784C4.32461 10.9558 2.64062 12.689 2.64062 14.8124C2.64062 14.9495 2.64766 15.0866 2.66172 15.2202C2.725 15.8354 2.30313 16.4999 1.68438 16.4999H1.51562C0.893359 16.4999 0.390625 17.0026 0.390625 17.6249C0.390625 18.2472 0.893359 18.7499 1.51562 18.7499H6.57812C8.7543 18.7499 10.5156 16.9886 10.5156 14.8124C10.5156 14.7245 10.5121 14.6366 10.5086 14.5487H10.5051Z" fill="white"/>
</svg>
