<svg width="16" height="13" viewBox="0 0 16 13" fill="none" xmlns="http://www.w3.org/2000/svg">
<path d="M4.20312 0.5C4.70041 0.5 5.17732 0.697544 5.52895 1.04917C5.88058 1.40081 6.07812 1.87772 6.07812 2.375C6.07812 2.87228 5.88058 3.34919 5.52895 3.70083C5.17732 4.05246 4.70041 4.25 4.20312 4.25C3.70584 4.25 3.22893 4.05246 2.8773 3.70083C2.52567 3.34919 2.32812 2.87228 2.32812 2.375C2.32812 1.87772 2.52567 1.40081 2.8773 1.04917C3.22893 0.697544 3.70584 0.5 4.20312 0.5ZM12.8281 0.5C13.3254 0.5 13.8023 0.697544 14.1539 1.04917C14.5056 1.40081 14.7031 1.87772 14.7031 2.375C14.7031 2.87228 14.5056 3.34919 14.1539 3.70083C13.8023 4.05246 13.3254 4.25 12.8281 4.25C12.3308 4.25 11.8539 4.05246 11.5023 3.70083C11.1507 3.34919 10.9531 2.87228 10.9531 2.375C10.9531 1.87772 11.1507 1.40081 11.5023 1.04917C11.8539 0.697544 12.3308 0.5 12.8281 0.5ZM0.828125 7.50078C0.828125 6.12031 1.94844 5 3.32891 5H4.32969C4.70234 5 5.05625 5.08203 5.375 5.22734C5.34453 5.39609 5.33047 5.57188 5.33047 5.75C5.33047 6.64531 5.72422 7.44922 6.34531 8C6.34062 8 6.33594 8 6.32891 8H1.32734C1.05312 8 0.828125 7.775 0.828125 7.50078ZM10.3273 8C10.3227 8 10.318 8 10.3109 8C10.9344 7.44922 11.3258 6.64531 11.3258 5.75C11.3258 5.57188 11.3094 5.39844 11.2812 5.22734C11.6 5.07969 11.9539 5 12.3266 5H13.3273C14.7078 5 15.8281 6.12031 15.8281 7.50078C15.8281 7.77734 15.6031 8 15.3289 8H10.3273ZM6.07812 5.75C6.07812 5.15326 6.31518 4.58097 6.73713 4.15901C7.15909 3.73705 7.73139 3.5 8.32812 3.5C8.92486 3.5 9.49716 3.73705 9.91912 4.15901C10.3411 4.58097 10.5781 5.15326 10.5781 5.75C10.5781 6.34674 10.3411 6.91903 9.91912 7.34099C9.49716 7.76295 8.92486 8 8.32812 8C7.73139 8 7.15909 7.76295 6.73713 7.34099C6.31518 6.91903 6.07812 6.34674 6.07812 5.75ZM3.82812 11.8742C3.82812 10.1492 5.22734 8.75 6.95234 8.75H9.70391C11.4289 8.75 12.8281 10.1492 12.8281 11.8742C12.8281 12.2188 12.5492 12.5 12.2023 12.5H4.45391C4.10938 12.5 3.82812 12.2211 3.82812 11.8742Z" />
</svg>
