<svg width="17" height="17" viewBox="0 0 17 17" fill="none" xmlns="http://www.w3.org/2000/svg">
<path d="M0.5625 8.0625C0.5625 5.94077 1.40535 3.90594 2.90565 2.40565C4.40594 0.905355 6.44077 0.0625 8.5625 0.0625C10.6842 0.0625 12.7191 0.905355 14.2194 2.40565C15.7196 3.90594 16.5625 5.94077 16.5625 8.0625C16.5625 10.1842 15.7196 12.2191 14.2194 13.7194C12.7191 15.2196 10.6842 16.0625 8.5625 16.0625C6.44077 16.0625 4.40594 15.2196 2.90565 13.7194C1.40535 12.2191 0.5625 10.1842 0.5625 8.0625ZM9.5625 3.0625C9.5625 2.79728 9.45714 2.54293 9.26961 2.35539C9.08207 2.16786 8.82772 2.0625 8.5625 2.0625C8.29728 2.0625 8.04293 2.16786 7.85539 2.35539C7.66786 2.54293 7.5625 2.79728 7.5625 3.0625C7.5625 3.32772 7.66786 3.58207 7.85539 3.76961C8.04293 3.95714 8.29728 4.0625 8.5625 4.0625C8.82772 4.0625 9.08207 3.95714 9.26961 3.76961C9.45714 3.58207 9.5625 3.32772 9.5625 3.0625ZM8.5625 13.0625C9.66562 13.0625 10.5625 12.1656 10.5625 11.0625C10.5625 10.5188 10.3469 10.0281 9.99687 9.66875L12 5.11562C12.1656 4.7375 11.9938 4.29375 11.6156 4.12813C11.2375 3.9625 10.7938 4.13437 10.6281 4.5125L8.62187 9.0625C8.60312 9.0625 8.58125 9.0625 8.5625 9.0625C7.45938 9.0625 6.5625 9.95938 6.5625 11.0625C6.5625 12.1656 7.45938 13.0625 8.5625 13.0625ZM6.0625 4.5625C6.0625 4.29728 5.95714 4.04293 5.76961 3.85539C5.58207 3.66786 5.32772 3.5625 5.0625 3.5625C4.79728 3.5625 4.54293 3.66786 4.35539 3.85539C4.16786 4.04293 4.0625 4.29728 4.0625 4.5625C4.0625 4.82772 4.16786 5.08207 4.35539 5.26961C4.54293 5.45714 4.79728 5.5625 5.0625 5.5625C5.32772 5.5625 5.58207 5.45714 5.76961 5.26961C5.95714 5.08207 6.0625 4.82772 6.0625 4.5625ZM3.5625 9.0625C3.82772 9.0625 4.08207 8.95714 4.26961 8.76961C4.45714 8.58207 4.5625 8.32772 4.5625 8.0625C4.5625 7.79728 4.45714 7.54293 4.26961 7.35539C4.08207 7.16786 3.82772 7.0625 3.5625 7.0625C3.29728 7.0625 3.04293 7.16786 2.85539 7.35539C2.66786 7.54293 2.5625 7.79728 2.5625 8.0625C2.5625 8.32772 2.66786 8.58207 2.85539 8.76961C3.04293 8.95714 3.29728 9.0625 3.5625 9.0625ZM14.5625 8.0625C14.5625 7.79728 14.4571 7.54293 14.2696 7.35539C14.0821 7.16786 13.8277 7.0625 13.5625 7.0625C13.2973 7.0625 13.0429 7.16786 12.8554 7.35539C12.6679 7.54293 12.5625 7.79728 12.5625 8.0625C12.5625 8.32772 12.6679 8.58207 12.8554 8.76961C13.0429 8.95714 13.2973 9.0625 13.5625 9.0625C13.8277 9.0625 14.0821 8.95714 14.2696 8.76961C14.4571 8.58207 14.5625 8.32772 14.5625 8.0625Z" fill="#9333EA"/>
</svg>
