<svg width="24" height="25" viewBox="0 0 24 25" fill="none" xmlns="http://www.w3.org/2000/svg">
<path d="M7.72969 1.65321C7.36875 0.78133 6.41719 0.317268 5.50781 0.565705L1.38281 1.69071C0.567188 1.91571 0 2.65633 0 3.50008C0 15.097 9.40313 24.5001 21 24.5001C21.8438 24.5001 22.5844 23.9329 22.8094 23.1173L23.9344 18.9923C24.1828 18.0829 23.7187 17.1313 22.8469 16.7704L18.3469 14.8954C17.5828 14.5766 16.6969 14.797 16.1766 15.4391L14.2828 17.7501C10.9828 16.1891 8.31094 13.5173 6.75 10.2173L9.06094 8.32821C9.70313 7.80321 9.92344 6.92196 9.60469 6.15789L7.72969 1.65789V1.65321Z" fill="white"/>
</svg>
