<svg width="26" height="20" viewBox="0 0 26 20" fill="none" xmlns="http://www.w3.org/2000/svg">
<path d="M6.125 0C6.9538 0 7.74866 0.32924 8.33471 0.915291C8.92076 1.50134 9.25 2.2962 9.25 3.125C9.25 3.9538 8.92076 4.74866 8.33471 5.33471C7.74866 5.92076 6.9538 6.25 6.125 6.25C5.2962 6.25 4.50134 5.92076 3.91529 5.33471C3.32924 4.74866 3 3.9538 3 3.125C3 2.2962 3.32924 1.50134 3.91529 0.915291C4.50134 0.32924 5.2962 0 6.125 0ZM20.5 0C21.3288 0 22.1237 0.32924 22.7097 0.915291C23.2958 1.50134 23.625 2.2962 23.625 3.125C23.625 3.9538 23.2958 4.74866 22.7097 5.33471C22.1237 5.92076 21.3288 6.25 20.5 6.25C19.6712 6.25 18.8763 5.92076 18.2903 5.33471C17.7042 4.74866 17.375 3.9538 17.375 3.125C17.375 2.2962 17.7042 1.50134 18.2903 0.915291C18.8763 0.32924 19.6712 0 20.5 0ZM0.5 11.668C0.5 9.36719 2.36719 7.5 4.66797 7.5H6.33594C6.95703 7.5 7.54688 7.63672 8.07812 7.87891C8.02734 8.16016 8.00391 8.45312 8.00391 8.75C8.00391 10.2422 8.66016 11.582 9.69531 12.5C9.6875 12.5 9.67969 12.5 9.66797 12.5H1.33203C0.875 12.5 0.5 12.125 0.5 11.668ZM16.332 12.5C16.3242 12.5 16.3164 12.5 16.3047 12.5C17.3438 11.582 17.9961 10.2422 17.9961 8.75C17.9961 8.45312 17.9688 8.16406 17.9219 7.87891C18.4531 7.63281 19.043 7.5 19.6641 7.5H21.332C23.6328 7.5 25.5 9.36719 25.5 11.668C25.5 12.1289 25.125 12.5 24.668 12.5H16.332ZM9.25 8.75C9.25 7.75544 9.64509 6.80161 10.3483 6.09835C11.0516 5.39509 12.0054 5 13 5C13.9946 5 14.9484 5.39509 15.6517 6.09835C16.3549 6.80161 16.75 7.75544 16.75 8.75C16.75 9.74456 16.3549 10.6984 15.6517 11.4017C14.9484 12.1049 13.9946 12.5 13 12.5C12.0054 12.5 11.0516 12.1049 10.3483 11.4017C9.64509 10.6984 9.25 9.74456 9.25 8.75ZM5.5 18.957C5.5 16.082 7.83203 13.75 10.707 13.75H15.293C18.168 13.75 20.5 16.082 20.5 18.957C20.5 19.5312 20.0352 20 19.457 20H6.54297C5.96875 20 5.5 19.5352 5.5 18.957Z" fill="#10B981"/>
</svg>
