<svg width="18" height="18" viewBox="0 0 22 22" fill="none" xmlns="http://www.w3.org/2000/svg">
<path d="M15.8052 0C14.925 0.00823681 14.0498 0.132645 13.2022 0.37L13.1422 0.388C12.6085 0.296491 12.0686 0.24601 11.5272 0.237C10.4142 0.218 9.45718 0.48 8.68718 0.917C7.92718 0.661 6.35118 0.22 4.69018 0.308C3.53318 0.369 2.27118 0.71 1.33618 1.668C0.403182 2.626 -0.0898182 4.108 0.0141818 6.125C0.0421818 6.682 0.205182 7.589 0.477182 8.765C0.747182 9.94 1.12918 11.315 1.60418 12.57C2.07918 13.825 2.60018 14.954 3.41418 15.72C3.82018 16.104 4.37918 16.427 5.03818 16.4C5.50118 16.382 5.92018 16.185 6.28118 15.894C6.45718 16.119 6.64518 16.217 6.81618 16.308C7.03118 16.422 7.24118 16.5 7.45818 16.552C8.0591 16.7061 8.68499 16.737 9.29818 16.643C9.56518 16.6 9.84618 16.516 10.1262 16.396C10.1362 16.698 10.1482 16.994 10.1612 17.294C10.1992 18.244 10.2242 19.121 10.5182 19.89C10.5652 20.016 10.6942 20.663 11.2052 21.234C11.7152 21.806 12.7152 22.162 13.8532 21.926C14.6562 21.759 15.6782 21.458 16.3562 20.522C17.0262 19.596 17.3292 18.268 17.3892 16.113C17.4042 15.997 17.4222 15.898 17.4412 15.805L17.6012 15.819H17.6192C18.4762 15.857 19.4062 15.739 20.1832 15.389C20.8712 15.079 21.3912 14.767 21.7702 14.212C21.8652 14.075 21.9692 13.909 21.9972 13.622C22.0252 13.337 21.8572 12.889 21.5762 12.683C21.0132 12.269 20.6602 12.426 20.2812 12.503C19.9078 12.583 19.5292 12.6273 19.1452 12.636C20.2382 10.852 21.0212 8.956 21.4682 7.278C21.7322 6.288 21.8812 5.375 21.8932 4.577C21.9052 3.779 21.8382 3.072 21.3452 2.46C19.8042 0.55 17.6372 0.0219999 15.9612 0.00399995C15.9092 0.00266662 15.8572 0.00233335 15.8052 0.00300002V0ZM15.7612 0.587C17.3462 0.572 19.3722 1.004 20.8262 2.807C21.1532 3.212 21.2502 3.804 21.2392 4.534C21.2272 5.263 21.0882 6.135 20.8342 7.091C20.3412 8.943 19.4092 11.101 18.0962 13.039C18.1428 13.0713 18.1932 13.0978 18.2462 13.118C18.5202 13.228 19.1442 13.322 20.3912 13.074C20.7042 13.009 20.9342 12.966 21.1722 13.142C21.2291 13.1893 21.2744 13.2491 21.3044 13.3167C21.3344 13.3844 21.3484 13.4581 21.3452 13.532C21.332 13.6437 21.2895 13.7499 21.2222 13.84C20.9822 14.191 20.5062 14.524 19.8962 14.798C19.3572 15.042 18.5832 15.169 17.8972 15.177C17.5532 15.18 17.2362 15.154 16.9672 15.073L16.9492 15.067C16.8452 16.038 16.6062 17.957 16.4512 18.832C16.3262 19.538 16.1082 20.099 15.6912 20.519C15.2752 20.939 14.6872 21.192 13.8952 21.357C12.9142 21.561 12.1992 21.341 11.7382 20.964C11.2782 20.589 11.0672 20.09 10.9402 19.784C10.8532 19.574 10.8082 19.301 10.7642 18.936C10.7158 18.499 10.6834 18.0604 10.6672 17.621C10.6385 16.8507 10.6291 16.0798 10.6392 15.309C10.2292 15.672 9.71918 15.914 9.17218 16.005C8.52218 16.112 7.94018 16.007 7.59318 15.923C7.42306 15.8811 7.25857 15.819 7.10318 15.738C6.94118 15.655 6.78818 15.561 6.68618 15.375C6.62608 15.2688 6.60688 15.1443 6.63218 15.025C6.66493 14.9038 6.73748 14.797 6.83818 14.722C7.02618 14.574 7.27318 14.492 7.64618 14.416C8.32618 14.281 8.56318 14.188 8.70718 14.077C8.83018 13.982 8.96918 13.79 9.21518 13.507L9.21218 13.47C8.77377 13.4571 8.34399 13.345 7.95518 13.142C7.81418 13.286 7.09018 14.029 6.20718 15.059C5.83618 15.49 5.42618 15.737 4.99318 15.755C4.56018 15.773 4.16918 15.561 3.83718 15.249C3.17218 14.623 2.64218 13.546 2.18018 12.329C1.72018 11.111 1.34418 9.755 1.07818 8.6C0.810182 7.445 0.652182 6.514 0.630182 6.065C0.530182 4.156 0.990182 2.87 1.78018 2.059C2.57018 1.248 3.65218 0.94 4.70818 0.882C6.60218 0.776 8.40118 1.417 8.76518 1.555C9.46618 1.093 10.3692 0.805 11.4982 0.823C12.0333 0.830442 12.5659 0.897523 13.0862 1.023L13.1052 1.015C13.3345 0.937 13.5672 0.871667 13.8032 0.819C14.4457 0.673984 15.1016 0.596894 15.7602 0.589L15.7612 0.587ZM15.9042 1.201H15.7672C15.2261 1.20829 14.687 1.26722 14.1572 1.377C15.2089 1.83508 16.133 2.54289 16.8492 3.439C17.2831 3.9751 17.6429 4.56706 17.9192 5.199C18.0232 5.441 18.0932 5.646 18.1322 5.804C18.1522 5.884 18.1662 5.951 18.1702 6.021C18.1739 6.06531 18.1702 6.10992 18.1592 6.153L18.1532 6.165C18.1822 6.968 17.9772 7.512 17.9522 8.278C17.9332 8.834 18.0792 9.487 18.1152 10.198C18.1492 10.868 18.0662 11.603 17.6182 12.325C17.6555 12.369 17.6915 12.413 17.7262 12.457C18.9112 10.647 19.7662 8.643 20.2212 6.936C20.4642 6.016 20.5942 5.183 20.6052 4.523C20.6152 3.863 20.4882 3.384 20.3262 3.185C19.0582 1.612 17.3432 1.212 15.9042 1.201ZM11.3792 1.435C10.2622 1.437 9.46018 1.765 8.85318 2.255C8.22618 2.762 7.80618 3.455 7.53018 4.166C7.26303 4.87653 7.09969 5.62186 7.04518 6.379L7.05818 6.372C7.39518 6.188 7.83818 6.005 8.31218 5.899C8.78718 5.793 9.29818 5.76 9.76118 5.934C10.2242 6.108 10.6072 6.518 10.7462 7.14C11.4112 10.126 10.5392 11.236 10.2172 12.073C10.0964 12.3768 9.99223 12.6869 9.90518 13.002C9.94518 12.9907 9.98552 12.9827 10.0262 12.978C10.2018 12.9685 10.3771 13.0029 10.5362 13.078C10.8602 13.208 11.0822 13.48 11.2022 13.792C11.2335 13.8747 11.2558 13.9613 11.2692 14.052C11.2825 14.09 11.2888 14.129 11.2882 14.169C11.2522 15.3108 11.2562 16.4535 11.3002 17.595C11.3222 18.089 11.3542 18.523 11.3952 18.866C11.4352 19.208 11.4932 19.468 11.5302 19.556C11.6502 19.85 11.8272 20.234 12.1472 20.495C12.4672 20.756 12.9242 20.929 13.7612 20.755C14.4872 20.604 14.9352 20.395 15.2352 20.092C15.5332 19.791 15.7122 19.372 15.8262 18.729C15.9972 17.766 16.3412 14.975 16.3822 14.449C16.3642 14.054 16.4242 13.749 16.5542 13.517C16.6892 13.279 16.8972 13.133 17.0762 13.054C17.1662 13.014 17.2502 12.988 17.3192 12.969C17.2457 12.8673 17.1689 12.7679 17.0892 12.671C16.8306 12.3685 16.6186 12.0291 16.4602 11.664C16.3839 11.5138 16.3028 11.3661 16.2172 11.221C16.0922 11.001 15.9332 10.726 15.7672 10.417C15.4342 9.798 15.0722 9.048 14.8842 8.317C14.6972 7.588 14.6692 6.833 15.1492 6.3C15.5752 5.827 16.3212 5.631 17.4422 5.741C17.4092 5.645 17.3892 5.565 17.3332 5.437C17.0802 4.85599 16.7495 4.31202 16.3502 3.82C15.4002 2.642 13.8632 1.474 11.4872 1.436H11.3792V1.435ZM5.10318 1.482C4.98318 1.482 4.86318 1.48533 4.74318 1.492C3.78918 1.545 2.88718 1.814 2.24218 2.478C1.59518 3.141 1.17018 4.229 1.26218 6.031C1.28118 6.371 1.43418 7.327 1.69618 8.461C1.95818 9.597 2.33018 10.932 2.77618 12.111C3.22218 13.291 3.76418 14.318 4.27818 14.804C4.53718 15.047 4.76218 15.145 4.96618 15.137C5.17118 15.127 5.41718 15.013 5.71918 14.662C6.26917 14.0184 6.83946 13.3924 7.42918 12.785C7.01251 12.4356 6.69175 11.9858 6.49718 11.478C6.3042 10.9751 6.2456 10.4305 6.32718 9.898C6.42418 9.22 6.43718 8.586 6.42618 8.086C6.41418 7.598 6.37818 7.274 6.37818 7.071V7.043C6.37715 5.98614 6.56651 4.93773 6.93718 3.948C7.20118 3.266 7.59518 2.573 8.18618 2.012C7.60618 1.827 6.57618 1.545 5.46118 1.492C5.34129 1.48558 5.22125 1.48225 5.10118 1.482H5.10318ZM16.8172 6.324C16.1762 6.332 15.8162 6.493 15.6272 6.703C15.3592 7.001 15.3342 7.523 15.5002 8.167C15.6662 8.811 16.0072 9.532 16.3292 10.13C16.4892 10.43 16.6452 10.7 16.7712 10.918C16.8982 11.138 16.9912 11.294 17.0472 11.428C17.1005 11.5487 17.1565 11.659 17.2152 11.759C17.4632 11.25 17.5082 10.751 17.4822 10.23C17.4492 9.586 17.2952 8.927 17.3182 8.26C17.3432 7.48 17.5022 6.971 17.5162 6.368C17.2842 6.33974 17.0508 6.32504 16.8172 6.324ZM9.03718 6.429C8.84129 6.43049 8.64614 6.45329 8.45518 6.497C8.07553 6.58651 7.70912 6.72501 7.36518 6.909C7.24985 6.969 7.13985 7.03867 7.03518 7.118L7.01518 7.136C7.02118 7.27 7.04818 7.595 7.06018 8.072C7.07018 8.595 7.05818 9.262 6.95418 9.982C6.72818 11.55 7.90018 12.848 9.27818 12.85C9.35818 12.528 9.49118 12.202 9.62318 11.858C10.0072 10.855 10.7622 10.124 10.1262 7.269C10.0222 6.802 9.81618 6.613 9.53218 6.506C9.37315 6.45078 9.20547 6.4247 9.03718 6.429ZM16.5172 6.616H16.5652C16.6278 6.618 16.6845 6.62467 16.7352 6.636C16.7812 6.64525 16.8252 6.66251 16.8652 6.687C16.8834 6.69773 16.8991 6.71218 16.9114 6.72941C16.9236 6.74665 16.9321 6.76627 16.9362 6.787V6.795C16.9388 6.83895 16.9269 6.88254 16.9022 6.919C16.8743 6.96942 16.8392 7.01556 16.7982 7.056C16.7013 7.15884 16.5735 7.22729 16.4342 7.251C16.2976 7.26717 16.1598 7.23343 16.0462 7.156C16.0004 7.12579 15.9591 7.08945 15.9232 7.048C15.8928 7.01562 15.8721 6.97547 15.8632 6.932C15.861 6.91061 15.8634 6.88901 15.8704 6.86865C15.8773 6.84829 15.8884 6.82965 15.9032 6.814C15.9352 6.78044 15.9727 6.7527 16.0142 6.732C16.1726 6.65928 16.344 6.61915 16.5182 6.614L16.5172 6.616ZM9.12918 6.77C9.17918 6.77 9.23152 6.774 9.28618 6.782C9.43018 6.802 9.55918 6.839 9.65718 6.894C9.70518 6.91867 9.74718 6.951 9.78318 6.991C9.80185 7.013 9.81585 7.03733 9.82518 7.064C9.83452 7.09067 9.83752 7.11833 9.83418 7.147C9.82509 7.20002 9.80037 7.24912 9.76318 7.288C9.72449 7.33458 9.67898 7.37504 9.62818 7.408C9.504 7.49257 9.35333 7.52918 9.20418 7.511C9.05286 7.48657 8.91374 7.41314 8.80818 7.302C8.7643 7.25724 8.72663 7.20679 8.69618 7.152C8.66504 7.10405 8.65127 7.04687 8.65718 6.99C8.67118 6.89 8.75618 6.84 8.83718 6.81C8.93082 6.7803 9.02912 6.76809 9.12718 6.774L9.12918 6.77ZM17.6892 13.502H17.6862C17.5472 13.552 17.4332 13.572 17.3362 13.612C17.2396 13.6478 17.1595 13.718 17.1112 13.809C17.0512 13.914 17.0012 14.101 17.0162 14.419C17.0593 14.4474 17.1065 14.469 17.1562 14.483C17.3172 14.531 17.5882 14.563 17.8912 14.558C18.4932 14.551 19.2352 14.415 19.6292 14.237C19.9522 14.091 20.2522 13.901 20.5202 13.673C19.2032 13.937 18.4602 13.867 18.0032 13.684C17.8905 13.638 17.7848 13.5774 17.6892 13.502ZM10.1012 13.587H10.0812C10.0312 13.591 9.95818 13.607 9.81818 13.759C9.48818 14.117 9.37418 14.341 9.10218 14.551C8.83218 14.761 8.47918 14.872 7.77518 15.012C7.55218 15.056 7.42518 15.105 7.33918 15.144C7.36718 15.166 7.36418 15.172 7.40518 15.193C7.50818 15.248 7.64118 15.296 7.74718 15.323C8.05018 15.396 8.54718 15.482 9.06618 15.396C9.58518 15.31 10.1242 15.069 10.5842 14.443C10.6642 14.335 10.6722 14.175 10.6072 14.003C10.5402 13.833 10.3962 13.685 10.2942 13.643C10.2333 13.6143 10.1681 13.5961 10.1012 13.589V13.587Z"/>
</svg>
