<svg width="16" height="18" viewBox="0 0 22 24" fill="none" xmlns="http://www.w3.org/2000/svg">
<path d="M5.40991 0L2.84491 2.565L6.69391 2.931L7.87791 0.226L10.5409 7.109L10.8909 8.013L11.2749 7.083L13.7499 1.09V1.089L14.0249 0.422L15.1249 2.932L18.9729 2.565L16.4069 0H7.97691H5.40991ZM7.80091 1.72L7.07091 3.455L4.18491 3.234L0.461914 2.932L1.56191 7.512L6.84391 9.476L6.85791 9.502L9.41591 10.447H9.65991L9.65891 10.442H10.5409V8.797L7.80091 1.72ZM14.0829 1.88L11.2749 8.679V10.442H12.2809L12.2789 10.447L12.5229 10.442H12.5579L12.5599 10.441H12.5839L14.9599 9.563L14.9699 9.545L20.4389 7.512L21.5379 2.932L17.4959 3.25L14.7469 3.456L14.0829 1.88ZM1.74491 8.245V14.473L6.14291 18.137V12.457L7.42691 10.625L5.77691 10.992L3.75991 8.977L1.74491 8.245ZM20.0719 8.245L18.0549 8.978L16.0399 10.992L14.3899 10.625L15.6739 12.457V18.137L20.0719 14.473V8.245ZM8.13691 10.599L7.83291 11.086L7.84191 11.102L6.69391 12.824V21.069L7.79391 22.717L9.07491 24H12.7399L14.0229 22.718L15.1229 21.068V12.824L13.9729 11.101L13.9829 11.086L13.8029 10.846L13.6559 10.626L13.6429 10.633L13.6179 10.599L12.8269 11.086H9.17191L8.13691 10.599ZM3.76091 16.855V19.236L6.14291 21.618V18.87L3.76091 16.855ZM18.0559 16.855L15.6739 18.87V21.618L18.0559 19.236V16.855Z" />
</svg>
