<svg width="16" height="18" viewBox="0 0 18 20" fill="none" xmlns="http://www.w3.org/2000/svg">
<path d="M1.0028 13.728C0.903459 13.5705 0.850075 13.3884 0.848662 13.2021C0.847248 13.0159 0.897862 12.833 0.994801 12.674L8.4738 0.474991C8.56814 0.321418 8.70239 0.196323 8.86223 0.11304C9.02208 0.029758 9.20152 -0.00858999 9.38144 0.00208416C9.56136 0.0127583 9.73502 0.0720543 9.88389 0.173652C10.0328 0.275249 10.1513 0.41534 10.2268 0.578991L17.0588 15.399C17.1183 15.5284 17.1494 15.6691 17.1499 15.8115C17.1504 15.954 17.1204 16.0949 17.0618 16.2247C17.0033 16.3546 16.9175 16.4704 16.8104 16.5643C16.7032 16.6581 16.5772 16.728 16.4408 16.769L5.8128 19.959C5.60484 20.0214 5.3822 20.0141 5.17875 19.9383C4.9753 19.8625 4.8022 19.7223 4.6858 19.539L1.0028 13.728ZM9.3368 4.04199L6.7068 17.14C6.69413 17.2031 6.69799 17.2683 6.71799 17.3295C6.738 17.3906 6.77348 17.4455 6.82098 17.4889C6.86848 17.5323 6.92639 17.5626 6.98909 17.577C7.05179 17.5914 7.11714 17.5893 7.1788 17.571L14.5218 15.379C14.5724 15.364 14.6192 15.3384 14.6592 15.3039C14.6991 15.2695 14.7313 15.2269 14.7536 15.1791C14.776 15.1313 14.7879 15.0793 14.7886 15.0265C14.7893 14.9737 14.7788 14.9214 14.7578 14.873L10.0458 3.96799C10.0148 3.89425 9.96081 3.83245 9.89195 3.79171C9.82309 3.75097 9.74295 3.73345 9.66336 3.74175C9.58378 3.75004 9.50898 3.7837 9.45 3.83777C9.39101 3.89183 9.35198 3.96343 9.3368 4.04199Z"/>
</svg>
