<svg width="18" height="15" viewBox="0 0 15 13" fill="none" xmlns="http://www.w3.org/2000/svg">
<path d="M11.9352 4.34546C11.7875 4.29624 11.6398 4.24976 11.4922 4.20601C11.5168 4.10483 11.5387 4.00366 11.5605 3.90249C11.8969 2.2728 11.6754 0.963037 10.9289 0.531006C10.2098 0.118115 9.03672 0.547412 7.85 1.58101C7.73242 1.68218 7.61758 1.78882 7.5082 1.89546C7.43437 1.82437 7.35781 1.75327 7.28125 1.68491C6.03711 0.580224 4.79023 0.115381 4.04375 0.550146C3.32734 0.965771 3.11406 2.19897 3.41484 3.74116C3.44492 3.89429 3.47773 4.04468 3.51602 4.1978C3.34102 4.24702 3.16875 4.30171 3.00742 4.35913C1.54727 4.86499 0.5 5.66343 0.5 6.48921C0.5 7.34233 1.61563 8.19819 3.1332 8.71772C3.25625 8.75874 3.3793 8.79976 3.50508 8.8353C3.46406 8.99936 3.42852 9.16069 3.3957 9.32749C3.10859 10.8451 3.33281 12.0482 4.04922 12.4611C4.7875 12.8876 6.02891 12.4501 7.2375 11.3919C7.3332 11.3072 7.42891 11.2197 7.52461 11.1267C7.64492 11.2443 7.7707 11.3564 7.89648 11.4658C9.0668 12.472 10.2234 12.8794 10.9371 12.4666C11.6754 12.04 11.916 10.7466 11.6043 9.17163C11.5797 9.05132 11.5523 8.92827 11.5223 8.80249C11.6098 8.77788 11.6945 8.75054 11.7793 8.72319C13.357 8.20093 14.5 7.35601 14.5 6.48921C14.5 5.66069 13.4227 4.85679 11.9352 4.34546ZM8.23555 2.02397C9.25273 1.13804 10.2016 0.790771 10.6336 1.0396C11.0957 1.30483 11.2734 2.37671 10.9836 3.78491C10.9645 3.87788 10.9453 3.96811 10.9207 4.05835C10.3137 3.92163 9.69844 3.82319 9.08047 3.76851C8.725 3.25991 8.33672 2.77319 7.91563 2.31655C8.02227 2.21538 8.12617 2.11968 8.23555 2.02397ZM5.07188 7.90835C5.21133 8.14624 5.35352 8.38413 5.50391 8.61655C5.07734 8.57007 4.65352 8.50171 4.23516 8.41147C4.35547 8.01772 4.50586 7.6103 4.68086 7.19468C4.80664 7.4353 4.93516 7.67319 5.07188 7.90835ZM4.24336 4.6189C4.63711 4.5314 5.05547 4.4603 5.49023 4.40561C5.34531 4.63257 5.20313 4.86499 5.06914 5.10015C4.93516 5.33257 4.80391 5.57046 4.68086 5.81108C4.50859 5.40366 4.36367 5.00444 4.24336 4.6189ZM4.99258 6.50288C5.17305 6.12554 5.36992 5.7564 5.57773 5.39272C5.78555 5.02905 6.00977 4.67632 6.24492 4.32905C6.65508 4.29897 7.07344 4.28257 7.5 4.28257C7.92656 4.28257 8.34766 4.29897 8.75508 4.32905C8.9875 4.67358 9.20898 5.02632 9.41953 5.38726C9.63008 5.74819 9.82695 6.11733 10.0129 6.49194C9.82969 6.86929 9.63281 7.24116 9.42227 7.60757C9.21445 7.97124 8.99297 8.32397 8.76055 8.67397C8.35312 8.70405 7.9293 8.71772 7.5 8.71772C7.0707 8.71772 6.65508 8.70405 6.25312 8.67944C6.01523 8.33218 5.79102 7.97671 5.58047 7.61304C5.36992 7.24937 5.17578 6.88022 4.99258 6.50288ZM9.93086 7.90288C10.0703 7.66226 10.2016 7.4189 10.3301 7.1728C10.5051 7.56929 10.6582 7.97124 10.7922 8.38413C10.3684 8.47983 9.93906 8.55366 9.50703 8.60288C9.65469 8.37319 9.79414 8.13804 9.93086 7.90288ZM10.3246 5.81108C10.1961 5.57046 10.0648 5.32983 9.92812 5.09468C9.79414 4.86226 9.65469 4.63257 9.50977 4.40561C9.95 4.4603 10.3711 4.53413 10.7648 4.62436C10.6391 5.02905 10.4914 5.4228 10.3246 5.81108ZM7.50547 2.73491C7.79258 3.04663 8.06328 3.37476 8.31484 3.71382C7.77344 3.68921 7.2293 3.68921 6.68789 3.71382C6.95586 3.36108 7.23203 3.03296 7.50547 2.73491ZM4.33359 1.05874C4.79297 0.790771 5.81289 1.17358 6.8875 2.12515C6.95586 2.1853 7.02422 2.25093 7.09531 2.31655C6.67148 2.77319 6.28047 3.25991 5.92227 3.76851C5.3043 3.82319 4.6918 3.9189 4.08477 4.05288C4.04922 3.91343 4.01914 3.77124 3.98906 3.62905C3.73203 2.30562 3.90156 1.30757 4.33359 1.05874ZM3.66367 8.26655C3.54883 8.23374 3.43672 8.19819 3.32461 8.15991C2.74219 7.97671 2.08047 7.68686 1.60195 7.30679C1.32578 7.11538 1.13984 6.82007 1.08789 6.48921C1.08789 5.98882 1.95195 5.34897 3.19883 4.91421C3.35469 4.85952 3.51328 4.8103 3.67188 4.76382C3.85781 5.35718 4.08203 5.9396 4.3418 6.50288C4.0793 7.07436 3.85234 7.66499 3.66367 8.26655ZM6.85195 10.9462C6.40078 11.3591 5.87852 11.6873 5.30977 11.9115C5.00625 12.0564 4.65625 12.0701 4.34453 11.947C3.90977 11.6955 3.7293 10.7302 3.97539 9.4314C4.00547 9.27827 4.03828 9.12515 4.07656 8.97476C4.68906 9.10601 5.30703 9.19624 5.9332 9.24272C6.29414 9.75405 6.69062 10.2435 7.11445 10.7029C7.02695 10.7876 6.93945 10.8697 6.85195 10.9462ZM7.52187 10.2818C7.24297 9.981 6.96406 9.64741 6.69336 9.28921C6.95586 9.30015 7.22656 9.30562 7.5 9.30562C7.78164 9.30562 8.05781 9.30015 8.33125 9.28647C8.07969 9.63374 7.80898 9.9646 7.52187 10.2818ZM11.0957 11.1021C11.0711 11.4357 10.907 11.7474 10.6445 11.958C10.2098 12.2095 9.28281 11.8814 8.28203 11.0228C8.16719 10.9244 8.05234 10.8177 7.93477 10.7083C8.35312 10.2462 8.73867 9.75679 9.08867 9.24272C9.71484 9.19077 10.3383 9.09507 10.9535 8.95561C10.9809 9.06772 11.0055 9.17983 11.0273 9.28921C11.1613 9.87983 11.1832 10.4951 11.0957 11.1021ZM11.5934 8.16265C11.5168 8.18726 11.4402 8.21186 11.3609 8.23374C11.1695 7.63765 10.9344 7.05522 10.6637 6.48921C10.9262 5.9314 11.1477 5.35718 11.3336 4.76929C11.4758 4.8103 11.6125 4.85405 11.7438 4.8978C13.018 5.3353 13.9121 5.98608 13.9121 6.48374C13.9121 7.01968 12.9578 7.71147 11.5934 8.16265ZM7.5 7.75249C8.1918 7.75249 8.75234 7.19194 8.75234 6.50015C8.75234 5.80835 8.1918 5.2478 7.5 5.2478C6.8082 5.2478 6.24766 5.80835 6.24766 6.50015C6.24766 7.19194 6.8082 7.75249 7.5 7.75249Z" fill="white"/>
</svg>
