<svg width="17" height="17" viewBox="0 0 17 17" fill="none" xmlns="http://www.w3.org/2000/svg">
<path d="M5.11253 12.5281L4.14691 11.5625C3.88128 11.2969 3.78753 10.9125 3.90628 10.5562C4.00003 10.2781 4.12503 9.91562 4.27503 9.5H0.96878C0.70003 9.5 0.45003 9.35625 0.315655 9.12187C0.18128 8.8875 0.184405 8.6 0.321905 8.36875L1.96253 5.60312C2.36878 4.91875 3.10316 4.5 3.89691 4.5H6.46878C6.54378 4.375 6.61878 4.25937 6.69378 4.14687C9.25316 0.371874 13.0657 0.246875 15.3407 0.665625C15.7032 0.73125 15.9844 1.01562 16.0532 1.37812C16.4719 3.65625 16.3438 7.46562 12.5719 10.025C12.4625 10.1 12.3438 10.175 12.2188 10.25V12.8219C12.2188 13.6156 11.8 14.3531 11.1157 14.7563L8.35003 16.3969C8.11878 16.5344 7.83128 16.5375 7.59691 16.4031C7.36253 16.2688 7.21878 16.0219 7.21878 15.75V12.4C6.77816 12.5531 6.39378 12.6781 6.10316 12.7719C5.75316 12.8844 5.37191 12.7875 5.10941 12.5281H5.11253ZM12.2188 5.75C12.5503 5.75 12.8682 5.6183 13.1027 5.38388C13.3371 5.14946 13.4688 4.83152 13.4688 4.5C13.4688 4.16848 13.3371 3.85054 13.1027 3.61612C12.8682 3.3817 12.5503 3.25 12.2188 3.25C11.8873 3.25 11.5693 3.3817 11.3349 3.61612C11.1005 3.85054 10.9688 4.16848 10.9688 4.5C10.9688 4.83152 11.1005 5.14946 11.3349 5.38388C11.5693 5.6183 11.8873 5.75 12.2188 5.75Z" fill="white"/>
</svg>
