<svg width="12" height="14" viewBox="0 0 12 14" fill="none" xmlns="http://www.w3.org/2000/svg">
<path d="M11.9187 1.8365C11.8336 1.54328 11.6875 1.27137 11.4899 1.03862C11.2923 0.805867 11.0477 0.61754 10.7722 0.486001C9.59117 -0.144499 7.71717 -0.162999 5.99817 0.440001C4.39187 0.977832 2.90462 1.82095 1.61817 2.923C0.242171 4.194 -0.100829 5.3855 0.023671 6.02C0.285171 7.354 1.66067 8.2895 2.76617 9.041C2.97517 9.183 3.17717 9.3205 3.35367 9.449C2.63917 9.829 1.22317 10.671 0.809671 11.573C0.676632 11.8289 0.602306 12.1111 0.5921 12.3993C0.581894 12.6875 0.636064 12.9744 0.750671 13.239C0.812838 13.3905 0.905713 13.5274 1.02344 13.6411C1.14116 13.7549 1.28118 13.843 1.43467 13.9C1.67738 13.9667 1.92797 14.0003 2.17967 14C2.69571 13.9908 3.20172 13.856 3.6539 13.6071C4.10607 13.3583 4.49077 13.003 4.77467 12.572C5.03009 12.1783 5.20045 11.7355 5.27485 11.2721C5.34924 10.8087 5.32602 10.3349 5.20667 9.881C5.54495 9.82809 5.88899 9.82304 6.22867 9.866C6.49564 9.87357 6.75825 9.93562 7.00037 10.0483C7.24249 10.1611 7.45902 10.3221 7.63667 10.5215C7.78431 10.6976 7.85987 10.923 7.84817 11.1525C7.8258 11.2628 7.77969 11.3669 7.71303 11.4575C7.64637 11.5482 7.56077 11.6233 7.46217 11.6775C7.34517 11.7475 7.16917 11.855 7.21017 12.079C7.22817 12.176 7.30917 12.3955 7.65717 12.335C7.95191 12.2536 8.21379 12.0821 8.40612 11.8444C8.59845 11.6067 8.71158 11.3147 8.72967 11.0095C8.73305 10.7396 8.68176 10.4718 8.57891 10.2223C8.47605 9.97276 8.32374 9.74662 8.13117 9.5575C7.8391 9.27999 7.49362 9.06481 7.11575 8.92504C6.73788 8.78527 6.33553 8.72385 5.93317 8.7445C5.48319 8.73824 5.03425 8.78932 4.59717 8.8965C4.25262 8.56282 3.8845 8.25435 3.49567 7.9735C2.63967 7.3235 1.83067 6.709 1.87817 5.8435C1.94067 4.712 3.11217 3.5775 5.36017 2.4715C7.36817 1.4835 8.98717 1.453 9.83217 1.7525C10.0823 1.81644 10.298 1.97464 10.4342 2.194C10.5029 2.39958 10.5224 2.61842 10.4912 2.83292C10.4599 3.04743 10.3787 3.25159 10.2542 3.429C9.84163 4.0482 9.29229 4.56429 8.64858 4.93742C8.00487 5.31056 7.28401 5.53075 6.54167 5.581C6.26066 5.64256 5.96944 5.64052 5.68932 5.57503C5.4092 5.50954 5.14726 5.38226 4.92267 5.2025C4.78367 5.0515 4.62617 4.88 4.38567 5.011C4.19734 5.11433 4.15984 5.3125 4.27317 5.6055C4.39813 5.83882 4.56927 6.04425 4.77617 6.20929C4.98308 6.37434 5.22142 6.49553 5.47667 6.5655C6.67054 6.82883 7.91691 6.7115 9.04067 6.23C10.8042 5.555 12.3812 3.629 11.9187 1.8365ZM3.94767 11.2375C3.92064 11.3174 3.88858 11.3956 3.85167 11.4715C3.75337 11.6692 3.62651 11.8513 3.47517 12.012C3.32901 12.2049 3.13583 12.357 2.9141 12.4539C2.69237 12.5508 2.44949 12.5892 2.20867 12.5655C2.18067 12.5495 2.16967 12.4925 2.16617 12.469C2.17596 12.2525 2.22855 12.0402 2.32089 11.8442C2.41323 11.6481 2.5435 11.4724 2.70417 11.327C3.09556 10.9423 3.54091 10.6168 4.02617 10.3605C4.06811 10.655 4.04124 10.9552 3.94767 11.2375Z" />
</svg>
