<svg width="17" height="17" viewBox="0 0 17 17" fill="none" xmlns="http://www.w3.org/2000/svg">
<path d="M15.8936 0.675119C16.2092 0.893869 16.3748 1.27199 16.3155 1.65012L14.3155 14.6501C14.2686 14.9532 14.0842 15.2189 13.8155 15.3689C13.5467 15.5189 13.2248 15.5376 12.9405 15.4189L9.20296 13.8657L7.06234 16.1814C6.78421 16.4845 6.34671 16.5845 5.96234 16.4345C5.57796 16.2845 5.32796 15.9126 5.32796 15.5001V12.8876C5.32796 12.7626 5.37484 12.6439 5.45921 12.5532L10.6967 6.83762C10.878 6.64074 10.8717 6.33762 10.6842 6.15012C10.4967 5.96262 10.1936 5.95012 9.99671 6.12824L3.64046 11.7751L0.881087 10.3939C0.549837 10.2282 0.337337 9.89699 0.327962 9.52824C0.318587 9.15949 0.512337 8.81574 0.831087 8.63137L14.8311 0.631369C15.1655 0.440744 15.578 0.459494 15.8936 0.675119Z" fill="white"/>
</svg>
