<svg width="16" height="17" viewBox="0 0 16 17" fill="none" xmlns="http://www.w3.org/2000/svg">
<path d="M10 0.8125C9.44687 0.8125 9 1.25937 9 1.8125C9 2.36563 9.44687 2.8125 10 2.8125H12.5844L6.29375 9.10625C5.90312 9.49687 5.90312 10.1313 6.29375 10.5219C6.68437 10.9125 7.31875 10.9125 7.70937 10.5219L14 4.22813V6.8125C14 7.36562 14.4469 7.8125 15 7.8125C15.5531 7.8125 16 7.36562 16 6.8125V1.8125C16 1.25937 15.5531 0.8125 15 0.8125H10ZM2.5 1.8125C1.11875 1.8125 0 2.93125 0 4.3125V14.3125C0 15.6938 1.11875 16.8125 2.5 16.8125H12.5C13.8813 16.8125 15 15.6938 15 14.3125V10.8125C15 10.2594 14.5531 9.8125 14 9.8125C13.4469 9.8125 13 10.2594 13 10.8125V14.3125C13 14.5875 12.775 14.8125 12.5 14.8125H2.5C2.225 14.8125 2 14.5875 2 14.3125V4.3125C2 4.0375 2.225 3.8125 2.5 3.8125H6C6.55312 3.8125 7 3.36562 7 2.8125C7 2.25937 6.55312 1.8125 6 1.8125H2.5Z" fill="white"/>
</svg>
