<svg width="15" height="16" viewBox="0 0 15 16" fill="none" xmlns="http://www.w3.org/2000/svg">
<path d="M7.50001 0.0625C7.64376 0.0625 7.78751 0.09375 7.91876 0.153125L13.8031 2.65C14.4906 2.94063 15.0031 3.61875 15 4.4375C14.9844 7.5375 13.7094 13.2094 8.32501 15.7875C7.80314 16.0375 7.19689 16.0375 6.67501 15.7875C1.29064 13.2094 0.0156392 7.5375 1.4214e-05 4.4375C-0.00311079 3.61875 0.509389 2.94063 1.19689 2.65L7.08439 0.153125C7.21251 0.09375 7.35626 0.0625 7.50001 0.0625ZM7.50001 2.15V13.9625C11.8125 11.875 12.9719 7.25312 13 4.48125L7.50001 2.15Z" fill="white"/>
</svg>
