<svg width="17" height="17" viewBox="0 0 17 17" fill="none" xmlns="http://www.w3.org/2000/svg">
<path d="M5.90312 1.51848C5.6625 0.937228 5.02812 0.627853 4.42188 0.793478L1.67188 1.54348C1.12813 1.69348 0.75 2.18723 0.75 2.74973C0.75 10.481 7.01875 16.7497 14.75 16.7497C15.3125 16.7497 15.8063 16.3716 15.9563 15.8279L16.7063 13.0779C16.8719 12.4716 16.5625 11.8372 15.9812 11.5966L12.9812 10.3466C12.4719 10.1341 11.8813 10.281 11.5344 10.7091L10.2719 12.2497C8.07188 11.2091 6.29062 9.42785 5.25 7.22785L6.79063 5.96848C7.21875 5.61848 7.36562 5.03098 7.15312 4.5216L5.90312 1.5216V1.51848Z" fill="white"/>
</svg>
