<svg width="18" height="18" viewBox="0 0 16 16" fill="none" xmlns="http://www.w3.org/2000/svg">
<path d="M6.61687 0V0.00025C6.56362 -0.007 5.70362 0.30275 5.14912 0.528125C4.40062 0.833125 3.81962 1.12388 3.46112 1.37563C3.34537 1.45775 3.20437 1.59437 3.15174 1.67188L3.15087 1.66925C3.14749 1.67517 3.14461 1.68136 3.14224 1.68775C3.13949 1.69275 3.13574 1.6985 3.13399 1.70275C3.12408 1.72911 3.11921 1.75709 3.11962 1.78525L3.12762 1.79275C3.12974 1.81863 3.13574 1.84775 3.14862 1.87962C3.18012 1.95712 3.27212 2.05163 3.37637 2.14838C3.37637 2.14838 4.45399 3.1995 4.58487 3.34963C5.18062 4.0375 5.43987 4.7155 5.46412 5.65037C5.47874 6.251 5.36462 6.77912 5.08124 7.39187C4.57749 8.49137 3.51437 9.70488 1.87474 11.0514L1.89962 11.043C1.88837 11.052 1.87362 11.0647 1.86274 11.0732C1.66649 11.2282 1.37574 11.5189 1.22799 11.703C1.00749 11.9791 0.833368 12.2721 0.758243 12.4974C0.624993 12.9042 0.690368 13.3159 0.946993 13.6961C1.27649 14.1805 1.93287 14.6749 2.69824 15.0112C3.08824 15.1834 3.74424 15.4038 4.23849 15.5271C5.05937 15.7355 6.64849 15.9608 7.52262 15.9945C7.69937 16.0019 7.93662 16.0019 7.94637 15.9945C7.96574 15.9824 8.10149 15.7235 8.25899 15.4015C8.79649 14.3042 9.18387 13.2749 9.39474 12.3956C9.52062 11.8629 9.61987 11.1531 9.68524 10.3127C9.70224 10.0777 9.70949 9.29063 9.69499 9.02425C9.67312 8.58838 9.63462 8.23475 9.57399 7.8885C9.56936 7.86487 9.56643 7.84093 9.56524 7.81687C11.5125 7.23838 13.6612 6.71425 15.0886 6.49587L15.3091 6.462L15.2751 6.4085C15.0814 6.10813 14.9482 5.92175 14.7884 5.72312C14.3234 5.14687 13.7592 4.6795 13.0689 4.292C12.1195 3.7615 10.8915 3.34738 9.33662 3.03975C9.04362 2.98163 8.39974 2.87013 7.87662 2.79025L7.82787 2.70287C7.54199 2.19912 7.22724 1.5745 7.04312 1.15313C6.90037 0.826125 6.76462 0.44825 6.68962 0.177C6.64837 0.01225 6.64374 0.0025 6.61687 0ZM6.57812 0.1235H6.58062C6.58287 0.126 6.59249 0.194 6.60224 0.273875C6.64349 0.612875 6.71862 0.939875 6.83737 1.2935C6.92687 1.55975 6.92687 1.54538 6.82274 1.51388C6.57574 1.44613 5.46899 1.25488 4.66724 1.14338C4.53887 1.1265 4.42987 1.1095 4.42987 1.107C4.42024 1.09725 5.00862 0.789875 5.26774 0.66875C5.59949 0.51625 6.51024 0.135625 6.57812 0.1235ZM4.24337 1.20875L4.33787 1.24025C4.85137 1.41462 6.14212 1.66188 6.85412 1.72C6.93412 1.72725 7.00187 1.73438 7.00412 1.73438C7.00662 1.73687 6.93912 1.77312 6.85174 1.81425C6.50799 1.98625 6.12987 2.19688 5.86837 2.35925C5.80887 2.39625 5.75437 2.4275 5.72749 2.44025L5.48599 2.40088L5.25799 2.1775C4.96349 1.89069 4.66724 1.60568 4.36924 1.3225L4.24337 1.20875ZM4.14649 1.284L4.48799 1.71025C4.67449 1.94525 4.86337 2.17525 4.90449 2.22613C4.94087 2.271 4.96737 2.30388 4.97237 2.31363C4.73049 2.2715 4.47162 2.22513 4.27237 2.18213C4.12699 2.15063 3.84862 2.08525 3.63062 2.01025C3.60812 2.0015 3.58249 1.992 3.55812 1.98287V1.95725C3.56062 1.79475 3.76637 1.5525 4.11499 1.30562L4.14649 1.284ZM7.04312 1.86475C7.04512 1.86392 7.04678 1.86408 7.04812 1.86525C7.05774 1.86525 7.06962 1.88675 7.09862 1.95212C7.18112 2.13375 7.43799 2.623 7.50099 2.7175L7.50899 2.7305C7.05127 2.65805 6.59389 2.58346 6.13687 2.50675C6.15164 2.49596 6.16718 2.48627 6.18337 2.47775C6.43774 2.33725 6.69437 2.15813 6.92212 1.96675C6.97774 1.92075 7.02849 1.87738 7.03837 1.87013C7.03939 1.86791 7.04104 1.86604 7.04312 1.86475ZM3.77587 2.27413C3.77824 2.27188 3.81699 2.28662 3.86787 2.3035C3.98389 2.34239 4.10102 2.37786 4.21912 2.40987C4.3254 2.43911 4.43194 2.46736 4.53874 2.49463C4.68399 2.53088 4.80524 2.565 4.80749 2.565C4.82462 2.582 5.06924 3.36425 5.15162 3.66462C5.18312 3.77837 5.20737 3.87525 5.20499 3.87525C5.20249 3.87775 5.17574 3.8365 5.14424 3.78075C4.86087 3.282 4.41287 2.77575 3.89449 2.36862C3.82674 2.32025 3.77574 2.27663 3.77574 2.27413H3.77587ZM4.96499 2.60138C4.96499 2.60613 4.96499 2.60387 4.96749 2.60387C4.97974 2.60387 5.03299 2.611 5.09837 2.6255C5.50999 2.7175 6.24874 2.858 6.72087 2.938C6.80087 2.95012 6.86374 2.96475 6.86374 2.9695C6.86374 2.9745 6.83499 2.99138 6.79849 3.01075C6.71849 3.052 6.39637 3.24325 6.28974 3.31575C6.02099 3.49512 5.77887 3.68862 5.60449 3.863C5.56126 3.90623 5.51764 3.94907 5.47362 3.9915C5.47362 3.9915 5.45924 3.95025 5.44699 3.89937C5.35987 3.56262 5.17824 3.06388 5.01337 2.71263C4.98674 2.657 4.96499 2.60613 4.96499 2.60138ZM7.06499 3.00325C7.07937 3.00825 7.10374 3.09062 7.15212 3.27225C7.24296 3.63463 7.2821 4.00803 7.26837 4.38137C7.26337 4.48312 7.25849 4.57763 7.25362 4.58988L7.24649 4.61375L7.12062 4.5725C6.86149 4.49025 6.44012 4.36687 6.07937 4.26512C5.87337 4.20937 5.70624 4.15862 5.70624 4.15387C5.70624 4.13925 6.00662 3.83888 6.13499 3.72513C6.37949 3.5095 7.04299 2.99612 7.06499 3.00325ZM7.23187 3.02763C7.23912 3.02038 8.23487 3.19213 8.68774 3.27938C9.02449 3.34475 9.51362 3.44663 9.54274 3.45875C9.55712 3.46375 9.50637 3.49237 9.34399 3.56525C8.70462 3.85337 8.22974 4.11275 7.75749 4.4275C7.63399 4.51 7.52974 4.57762 7.52749 4.57762C7.52499 4.57762 7.52262 4.50738 7.52262 4.42263C7.52262 3.9625 7.43087 3.4975 7.26124 3.10512C7.24424 3.06637 7.22949 3.03 7.23187 3.02763ZM9.80637 3.53612C9.81362 3.54325 9.78224 3.73975 9.75312 3.856C9.66587 4.21687 9.43112 4.75225 9.14312 5.256C9.09199 5.3455 9.04587 5.41812 9.04099 5.4205C9.03612 5.42287 8.97124 5.38638 8.89599 5.34275C8.61512 5.178 8.29524 5.02337 7.94649 4.878C7.84962 4.83675 7.76474 4.80287 7.76237 4.79787C7.74537 4.7835 8.52537 4.26763 8.93699 4.0205C9.26412 3.82188 9.79687 3.5265 9.80637 3.53612ZM9.99074 3.56525C10.0125 3.56525 10.4532 3.68625 10.6832 3.75413C11.2525 3.92363 11.9062 4.1635 12.3325 4.35725L12.5092 4.437L12.386 4.46613C11.3447 4.70588 10.4531 4.98225 9.59324 5.33087C9.52299 5.36 9.45999 5.384 9.45524 5.384C9.45049 5.384 9.47487 5.3285 9.50637 5.26075C9.76549 4.71087 9.93237 4.13688 9.97362 3.6475C9.97599 3.6015 9.98349 3.56525 9.99074 3.56525ZM5.60199 4.57275C5.60924 4.5655 5.94587 4.6455 6.12762 4.69637C6.40387 4.77387 6.98999 4.97012 6.98999 4.98438C6.98999 4.98687 6.92437 5.04262 6.84687 5.11037C6.52962 5.37437 6.22437 5.653 5.85862 6.00663C5.74974 6.11075 5.65787 6.19537 5.65299 6.19537C5.64799 6.19537 5.64562 6.181 5.64799 6.16162C5.70362 5.75475 5.69174 5.23163 5.61424 4.70125C5.60674 4.63338 5.59962 4.57513 5.60199 4.57275ZM12.6765 4.58012C12.6812 4.585 12.5215 4.83662 12.4196 4.9795C12.2744 5.18787 12.0612 5.46412 11.5794 6.0695C11.367 6.33604 11.1555 6.60325 10.9449 6.87113C10.848 6.99225 10.768 7.094 10.7654 7.094C10.7631 7.094 10.7316 7.05025 10.6977 6.99713C10.4265 6.59013 10.1019 6.23425 9.71674 5.91463C9.65812 5.86491 9.59848 5.8164 9.53787 5.76912C9.51112 5.74975 9.48912 5.73038 9.48912 5.72788C9.48912 5.72075 9.90087 5.54388 10.2134 5.418C10.7609 5.19513 11.5065 4.92888 12.0661 4.75675C12.3591 4.66488 12.6716 4.57525 12.6765 4.58012ZM12.863 4.6285C12.8726 4.626 12.9309 4.65525 13.001 4.69637C13.5896 5.033 14.166 5.46663 14.6214 5.91213C14.7497 6.03813 15.0669 6.36725 15.062 6.36963C15.062 6.36963 14.9506 6.37962 14.8199 6.38925C13.8002 6.46675 12.4949 6.68213 11.2405 6.98488C11.1555 7.00425 11.0805 7.02125 11.0756 7.02125C11.0707 7.02125 11.1651 6.92675 11.2839 6.813C12.0201 6.10338 12.3567 5.65537 12.7539 4.856C12.8096 4.7375 12.8581 4.63575 12.863 4.6285ZM7.46949 5.18075C7.50324 5.188 7.81799 5.33562 8.05537 5.45437C8.27337 5.56325 8.60049 5.73763 8.61737 5.75225C8.61987 5.75463 8.50362 5.81512 8.36062 5.8855C7.93364 6.09779 7.51585 6.32808 7.10837 6.57575C6.99212 6.646 6.89537 6.70412 6.89299 6.70412C6.88324 6.70412 6.88574 6.69437 6.95112 6.57575C7.16912 6.17862 7.34362 5.70388 7.44287 5.24125C7.45249 5.205 7.46224 5.18075 7.46949 5.18075ZM7.15449 5.23875C7.16174 5.246 7.07949 5.544 7.02849 5.70625C6.92912 6.01375 6.76212 6.39875 6.59974 6.6895C6.56099 6.75725 6.50287 6.85675 6.47137 6.91237L6.41087 7.00913L6.27537 6.8785C6.11787 6.726 5.98949 6.63125 5.82487 6.54637C5.75937 6.51262 5.70862 6.48363 5.70862 6.47888C5.70862 6.45938 6.12287 6.084 6.44012 5.81275C6.66762 5.6165 7.14724 5.2315 7.15449 5.23875ZM9.07999 6.03075L9.19874 6.10825C9.46999 6.285 9.78949 6.52012 10.0341 6.72575C10.1721 6.8395 10.4385 7.0795 10.4919 7.1375L10.521 7.169L10.3247 7.22487C9.21549 7.53237 8.35812 7.806 7.35787 8.17412C7.24637 8.21537 7.15199 8.24912 7.14474 8.24912C7.13024 8.24912 7.11812 8.26113 7.36762 8.031C8.00699 7.44263 8.57387 6.79375 8.99537 6.16162L9.07999 6.03075ZM8.57374 6.15675C8.57874 6.16175 8.24699 6.62888 8.04837 6.89288C7.81087 7.20775 7.38937 7.73575 7.09862 8.07963C6.97762 8.22263 6.87362 8.34113 6.86862 8.3435C6.86137 8.346 6.85887 8.30975 6.85887 8.254C6.85887 7.961 6.78399 7.6485 6.65324 7.38212C6.59749 7.27075 6.58787 7.24412 6.60012 7.232C6.64612 7.19075 7.35062 6.78888 7.79612 6.54913C8.09662 6.38913 8.56662 6.152 8.57374 6.15675ZM5.51249 6.9075C5.51962 6.9075 5.57524 6.93662 5.63837 6.9705C5.78575 7.05083 5.9252 7.14491 6.05487 7.2515C6.05987 7.25625 5.99687 7.30725 5.91449 7.36775C5.68449 7.53238 5.33574 7.7965 5.13224 7.95875C4.91912 8.12825 4.91187 8.133 4.93599 8.09675C5.09599 7.85213 5.17599 7.714 5.26074 7.53713C5.33871 7.37264 5.40663 7.20358 5.46412 7.03088C5.48349 6.96088 5.50762 6.9075 5.51249 6.9075ZM6.32874 7.54663C6.34087 7.54438 6.35537 7.56625 6.42062 7.66313C6.55862 7.869 6.66524 8.14525 6.69187 8.368L6.69674 8.41625L6.36499 8.54475C5.77162 8.77475 5.22424 9.0025 4.85374 9.17225C4.71834 9.23563 4.58346 9.30014 4.44912 9.36575C4.33037 9.42625 4.23362 9.47238 4.23362 9.47C4.23362 9.46763 4.30862 9.41187 4.40062 9.344C5.12487 8.8185 5.75224 8.242 6.22212 7.66563C6.27299 7.60513 6.31899 7.54937 6.32374 7.54688L6.32874 7.54663ZM5.95337 7.63875V7.639C5.96312 7.64862 5.68687 7.961 5.49799 8.15238C5.03049 8.62938 4.56787 9.0025 3.99387 9.36575C3.92112 9.41175 3.85587 9.45288 3.84862 9.45763C3.83174 9.46738 3.85337 9.44313 4.10537 9.1695C4.25306 9.01103 4.3929 8.84542 4.52437 8.67325C4.61637 8.5545 4.63324 8.5375 4.76649 8.44325C5.12274 8.18625 5.94374 7.62913 5.95337 7.63875ZM9.20012 7.92625C9.23437 8.05837 9.29762 8.692 9.31487 9.11137C9.31987 9.21075 9.31724 9.27612 9.31224 9.27612C9.29299 9.27612 8.90312 9.04612 8.62474 8.87162C8.38349 8.71975 7.92737 8.41738 7.85224 8.3575C8.29924 8.20667 8.74859 8.06291 9.20012 7.92625ZM7.59174 8.45025C7.62349 8.464 7.67112 8.49025 7.76724 8.54963C8.26612 8.86213 8.94449 9.23988 9.23512 9.36588C9.32462 9.40463 9.33424 9.39 9.12837 9.53063C8.68762 9.83088 8.13787 10.1262 7.46462 10.4241C7.34587 10.4774 7.24649 10.5186 7.24412 10.5186C7.23912 10.5186 7.25374 10.4579 7.27312 10.3853C7.43524 9.78213 7.52762 9.17212 7.53249 8.68287C7.53374 8.56075 7.53424 8.50037 7.53737 8.4695L7.59174 8.45025ZM7.22112 8.58212C7.23287 8.64162 7.22374 9.12813 7.20524 9.26888C7.16189 9.62585 7.08744 9.97836 6.98274 10.3224C6.95599 10.412 6.93149 10.4872 6.92674 10.492C6.91699 10.5041 6.58524 10.1795 6.47624 10.0535C6.28749 9.8355 6.13974 9.61775 6.03074 9.40462C5.98024 9.30587 5.90737 9.129 5.89887 9.08988C6.25498 8.9453 6.61302 8.8055 6.97287 8.6705C7.04999 8.6415 7.14074 8.61137 7.22112 8.58212ZM5.64574 9.19462C5.65162 9.20325 5.66612 9.2355 5.67962 9.27612C5.75712 9.48675 5.93124 9.79675 6.08149 9.99537C6.24624 10.2134 6.46187 10.446 6.64112 10.5985C6.69924 10.6469 6.75237 10.693 6.75974 10.7002C6.77424 10.7149 6.77912 10.7124 6.38424 10.8626C5.92674 11.037 5.42774 11.2114 4.85612 11.3954C4.71953 11.4394 4.58308 11.4838 4.44674 11.5286C4.42487 11.5359 4.43249 11.5236 4.49537 11.4244C4.77874 10.9814 5.20962 10.1119 5.45187 9.49662C5.49312 9.39 5.53424 9.28337 5.54149 9.25912C5.54487 9.24725 5.54974 9.24037 5.55437 9.23275L5.64574 9.19462ZM5.14449 9.40713C5.12799 9.45588 5.02287 9.676 4.91424 9.88875C4.67924 10.3466 4.42262 10.7971 4.07874 11.3445C4.02049 11.4389 3.96499 11.5261 3.95749 11.5358C3.94549 11.5528 3.94062 11.548 3.90174 11.473C3.81937 11.3105 3.75174 11.1024 3.71524 10.911C3.67899 10.7221 3.68624 10.3927 3.72749 10.1892C3.74624 10.0996 3.75449 10.0659 3.77249 10.0442C4.22403 9.81957 4.68153 9.60708 5.14449 9.407V9.40713ZM9.32937 9.55713V9.65875C9.32937 10.1989 9.27124 10.94 9.18649 11.48C9.17199 11.5745 9.15987 11.6521 9.15749 11.6546C9.15749 11.6546 9.08712 11.6351 9.00487 11.6109C8.61896 11.4883 8.24587 11.3286 7.89087 11.1339C7.65587 11.0055 7.31462 10.7946 7.32424 10.785C7.32662 10.7825 7.42824 10.7294 7.54674 10.6663C8.02162 10.4194 8.47687 10.1529 8.87174 9.88875C9.01949 9.7895 9.24212 9.62988 9.29049 9.58625L9.32937 9.55713ZM3.32337 10.2743C3.33262 10.2748 3.32987 10.2946 3.31562 10.3806C3.30354 10.4665 3.29466 10.5528 3.28899 10.6394C3.26962 10.9931 3.32774 11.255 3.50212 11.6134C3.55062 11.7126 3.58937 11.795 3.58687 11.7974C3.56999 11.812 1.96662 12.2818 1.46287 12.4198C1.31274 12.461 1.18199 12.4973 1.17224 12.4996C1.15524 12.5046 1.15287 12.5023 1.16012 12.461C1.21587 12.105 1.48724 11.64 1.86512 11.2476C2.11687 10.986 2.31787 10.8334 2.66174 10.6372C2.77687 10.5717 2.91999 10.4919 3.04387 10.4235C3.13612 10.3733 3.22928 10.3236 3.32337 10.2743ZM7.10099 10.9497H7.10124C7.10374 10.9472 7.16162 10.9787 7.23187 11.0197C7.75024 11.3202 8.47199 11.5989 9.08712 11.7417L9.14274 11.7537L9.06537 11.7975C8.74337 11.9766 7.68474 12.4175 6.60224 12.8219C6.44474 12.88 6.28999 12.9381 6.26099 12.9502C6.23187 12.9624 6.20499 12.9696 6.20499 12.9671C6.20499 12.9646 6.24874 12.8799 6.30437 12.7758C6.60712 12.209 6.91224 11.5189 7.06737 11.0394C7.08674 10.9934 7.09849 10.9522 7.10099 10.9497ZM6.71599 11.0755H6.71624C6.71874 11.078 6.69924 11.129 6.67499 11.1871C6.46424 11.6981 6.18812 12.2553 5.83449 12.88C5.74499 13.04 5.66987 13.1683 5.66749 13.1683C5.66512 13.1683 5.59237 13.1245 5.50499 13.0714C4.99174 12.7564 4.53624 12.3689 4.23849 11.9935L4.19474 11.9403L4.41524 11.8798C5.20474 11.6643 5.87574 11.4317 6.54174 11.146C6.63624 11.1072 6.71362 11.0755 6.71599 11.0755ZM9.10887 11.9113C9.11137 11.967 8.98799 12.4659 8.88624 12.8267C8.80149 13.1295 8.72874 13.3668 8.59537 13.7858C8.53737 13.97 8.48662 14.1224 8.48412 14.1224C8.48162 14.1224 8.46724 14.1201 8.45262 14.1154C7.73337 13.9845 7.08912 13.8028 6.48362 13.5606C6.31412 13.4928 6.07199 13.3837 6.05737 13.3716C6.05262 13.3667 6.19787 13.299 6.38199 13.2191C7.48399 12.7371 8.62699 12.1897 9.01949 11.9549C9.06549 11.9257 9.10162 11.9113 9.10887 11.9113ZM3.58462 12.1C3.58962 12.105 3.28174 12.5481 2.85087 13.1512C2.70049 13.362 2.52624 13.6089 2.46087 13.7009C2.3852 13.8076 2.31168 13.9157 2.24037 14.0254L2.13862 14.183L2.02974 14.0907C1.90137 13.9841 1.67862 13.7566 1.57924 13.6307C1.37099 13.3716 1.23037 13.0978 1.17474 12.8483C1.14799 12.732 1.14799 12.674 1.17224 12.667C1.60146 12.5644 2.03104 12.4634 2.46099 12.364C2.75023 12.2974 3.03919 12.2296 3.32787 12.1606C3.46837 12.1268 3.58224 12.1 3.58462 12.1ZM3.89449 12.2188L3.97212 12.3059C4.32087 12.6959 4.67674 12.984 5.10787 13.2359C5.18537 13.2796 5.24362 13.3183 5.23874 13.3208C5.22187 13.3328 3.74199 13.8582 3.05662 14.0957C2.82219 14.1788 2.58722 14.2603 2.35174 14.3403C2.34937 14.3403 2.32749 14.3256 2.30337 14.3088L2.25962 14.2773L2.32999 14.1755C2.55749 13.8461 2.84337 13.4854 3.46574 12.7345L3.89449 12.2188ZM5.82737 13.6015C5.82974 13.599 5.93612 13.6377 6.06712 13.6865C6.38199 13.8051 6.63124 13.8803 6.96549 13.965C7.37724 14.0691 7.97312 14.1707 8.32449 14.2C8.37774 14.2046 8.40662 14.2095 8.39699 14.2168C8.37999 14.2264 8.02387 14.3452 7.76237 14.4275C7.34574 14.5584 6.07437 14.9337 5.03774 15.2316C4.91611 15.2672 4.79423 15.302 4.67212 15.3359C4.64787 15.3406 4.56787 15.3186 4.56787 15.309C4.56787 15.3043 4.62599 15.2293 4.69624 15.1469C5.04499 14.7303 5.39137 14.2651 5.67962 13.8244C5.75962 13.7033 5.82737 13.6039 5.82737 13.6015ZM5.40087 13.6138H5.40112C5.40349 13.6163 5.23149 13.8921 4.93112 14.3669C4.80287 14.5679 4.65987 14.7959 4.60912 14.8756C4.56062 14.9531 4.48774 15.0744 4.44662 15.142L4.37662 15.2654L4.34037 15.2559C4.25299 15.2315 3.64024 15.016 3.47787 14.9506C3.28548 14.8741 3.09719 14.7876 2.91374 14.6916C2.71999 14.5874 2.47787 14.4324 2.49724 14.4275C2.50199 14.425 2.83374 14.3355 3.23337 14.2265C4.29399 13.9382 4.88262 13.7712 5.26774 13.6501C5.33799 13.6282 5.39849 13.6113 5.40087 13.6138ZM8.41624 14.3208H8.41887C8.42849 14.3451 8.03599 15.4349 7.89299 15.7788C7.86174 15.8563 7.84949 15.8758 7.83249 15.8733C7.79124 15.8708 7.22237 15.7911 6.87599 15.7402C6.27299 15.6482 5.26037 15.4715 5.00624 15.4132L4.94824 15.4011L5.30899 15.3188C6.08399 15.1444 6.45699 15.05 6.83487 14.9338C7.32286 14.7845 7.79961 14.6007 8.26149 14.3837C8.33649 14.35 8.39924 14.3234 8.41624 14.321V14.3208Z"/>
</svg>
