<svg width="16" height="15" viewBox="0 0 16 15" fill="none" xmlns="http://www.w3.org/2000/svg">
<path d="M8.64959 0.742188C8.50467 0.441406 8.19842 0.25 7.86209 0.25C7.52576 0.25 7.22225 0.441406 7.07459 0.742188L5.31639 4.35977L1.38982 4.93945C1.0617 4.98867 0.788262 5.21836 0.68709 5.53281C0.585918 5.84727 0.66795 6.19453 0.903106 6.42695L3.75232 9.24609L3.07967 13.2301C3.02498 13.5582 3.1617 13.8918 3.4324 14.0859C3.70311 14.2801 4.06131 14.3047 4.35662 14.1488L7.86483 12.2758L11.373 14.1488C11.6683 14.3047 12.0265 14.2828 12.2972 14.0859C12.5679 13.8891 12.7047 13.5582 12.65 13.2301L11.9746 9.24609L14.8238 6.42695C15.059 6.19453 15.1437 5.84727 15.0398 5.53281C14.9359 5.21836 14.6652 4.98867 14.3371 4.93945L10.4078 4.35977L8.64959 0.742188Z"/>
</svg>
