<svg width="18" height="20" viewBox="0 0 18 20" fill="none" xmlns="http://www.w3.org/2000/svg">
<path d="M17.75 3.125V5C17.75 6.72656 13.832 8.125 9 8.125C4.16797 8.125 0.25 6.72656 0.25 5V3.125C0.25 1.39844 4.16797 0 9 0C13.832 0 17.75 1.39844 17.75 3.125ZM15.6094 8.38672C16.4219 8.09766 17.168 7.72656 17.75 7.26953V11.25C17.75 12.9766 13.832 14.375 9 14.375C4.16797 14.375 0.25 12.9766 0.25 11.25V7.26953C0.832031 7.73047 1.57812 8.09766 2.39062 8.38672C4.14453 9.01172 6.48047 9.375 9 9.375C11.5195 9.375 13.8555 9.01172 15.6094 8.38672ZM0.25 13.5195C0.832031 13.9805 1.57812 14.3477 2.39062 14.6367C4.14453 15.2617 6.48047 15.625 9 15.625C11.5195 15.625 13.8555 15.2617 15.6094 14.6367C16.4219 14.3477 17.168 13.9766 17.75 13.5195V16.875C17.75 18.6016 13.832 20 9 20C4.16797 20 0.25 18.6016 0.25 16.875V13.5195Z" fill="white"/>
</svg>
