<svg width="16" height="10" viewBox="0 0 16 10" fill="none" xmlns="http://www.w3.org/2000/svg">
<path d="M8.00049 0.200256C5.86711 0.200256 4.53424 1.26651 4.00049 3.39988C4.80024 2.33351 5.73386 1.93363 6.80024 2.20026C7.40911 2.35201 7.84424 2.79351 8.32611 3.28276C9.11036 4.07863 10.0181 5.00001 12.0005 5.00001C14.1337 5.00001 15.4667 3.93363 16.0005 1.79976C15.2005 2.86667 14.2672 3.26676 13.2006 3.00001C12.5919 2.84813 12.1572 2.40676 11.6747 1.91751C10.891 1.12163 9.98349 0.200256 8.00049 0.200256ZM4.00049 5.00001C1.86724 5.00001 0.534238 6.06638 0.000488281 8.20026C0.800405 7.13334 1.73366 6.73326 2.80024 7.00001C3.40911 7.15188 3.84424 7.59326 4.32611 8.08251C5.11036 8.87838 6.01811 9.79976 8.00049 9.79976C10.1337 9.79976 11.4667 8.73351 12.0005 6.60013C11.2005 7.66655 10.2672 8.06642 9.20061 7.79976C8.59186 7.64801 8.15724 7.20651 7.67474 6.71726C6.89099 5.92138 5.98349 5.00001 4.00049 5.00001Z" />
</svg>
