<svg width="15" height="15" viewBox="0 0 15 15" fill="none" xmlns="http://www.w3.org/2000/svg">
<path d="M14.0597 5.05547C14.1472 5.29336 14.0734 5.55859 13.8847 5.72813L12.7007 6.80547C12.7308 7.03242 12.7472 7.26484 12.7472 7.5C12.7472 7.73516 12.7308 7.96758 12.7007 8.19453L13.8847 9.27187C14.0734 9.44141 14.1472 9.70664 14.0597 9.94453C13.9394 10.2699 13.7945 10.5816 13.6277 10.8824L13.4992 11.1039C13.3187 11.4047 13.1164 11.6891 12.8949 11.957C12.7336 12.1539 12.4656 12.2195 12.225 12.143L10.7019 11.659C10.3355 11.9406 9.93082 12.1758 9.49879 12.3535L9.15699 13.9148C9.1023 14.1637 8.9109 14.3605 8.65933 14.4016C8.28199 14.4645 7.89371 14.4973 7.49722 14.4973C7.10074 14.4973 6.71246 14.4645 6.33511 14.4016C6.08355 14.3605 5.89215 14.1637 5.83746 13.9148L5.49566 12.3535C5.06363 12.1758 4.65894 11.9406 4.29254 11.659L2.77222 12.1457C2.5316 12.2223 2.26363 12.1539 2.1023 11.9598C1.88082 11.6918 1.67847 11.4074 1.49801 11.1066L1.36949 10.8852C1.20269 10.5844 1.05777 10.2727 0.937458 9.94727C0.849958 9.70938 0.923786 9.44414 1.11246 9.27461L2.29644 8.19727C2.26636 7.96758 2.24996 7.73516 2.24996 7.5C2.24996 7.26484 2.26636 7.03242 2.29644 6.80547L1.11246 5.72813C0.923786 5.55859 0.849958 5.29336 0.937458 5.05547C1.05777 4.73008 1.20269 4.41836 1.36949 4.11758L1.49801 3.89609C1.67847 3.59531 1.88082 3.31094 2.1023 3.04297C2.26363 2.84609 2.5316 2.78047 2.77222 2.85703L4.29527 3.34102C4.66168 3.05938 5.06636 2.82422 5.4984 2.64648L5.84019 1.08516C5.89488 0.836328 6.08629 0.639453 6.33785 0.598437C6.71519 0.532812 7.10347 0.5 7.49996 0.5C7.89644 0.5 8.28472 0.532813 8.66207 0.595703C8.91363 0.636719 9.10504 0.833594 9.15972 1.08242L9.50152 2.64375C9.93355 2.82148 10.3382 3.05664 10.7046 3.33828L12.2277 2.8543C12.4683 2.77773 12.7363 2.84609 12.8976 3.04023C13.1191 3.3082 13.3214 3.59258 13.5019 3.89336L13.6304 4.11484C13.7972 4.41562 13.9421 4.72734 14.0625 5.05273L14.0597 5.05547ZM7.49996 9.6875C8.08012 9.6875 8.63652 9.45703 9.04675 9.0468C9.45699 8.63656 9.68746 8.08016 9.68746 7.5C9.68746 6.91984 9.45699 6.36344 9.04675 5.9532C8.63652 5.54297 8.08012 5.3125 7.49996 5.3125C6.9198 5.3125 6.3634 5.54297 5.95316 5.9532C5.54293 6.36344 5.31246 6.91984 5.31246 7.5C5.31246 8.08016 5.54293 8.63656 5.95316 9.0468C6.3634 9.45703 6.9198 9.6875 7.49996 9.6875Z" fill="#9333EA"/>
</svg>
