<svg width="20" height="20" viewBox="0 0 20 20" fill="none" xmlns="http://www.w3.org/2000/svg">
<path d="M3.07044 0.195294C2.69935 -0.0937687 2.17201 -0.0586125 1.83607 0.273419L0.273568 1.83592C-0.0584634 2.16795 -0.0936196 2.69529 0.191537 3.07029L3.31654 7.13279C3.49232 7.36326 3.76966 7.49998 4.05872 7.49998H6.17201L10.4298 11.7578C9.8556 12.8906 10.0392 14.3125 10.9884 15.2578L15.3634 19.6328C15.8517 20.1211 16.6447 20.1211 17.1329 19.6328L19.6329 17.1328C20.1212 16.6445 20.1212 15.8515 19.6329 15.3633L15.2579 10.9883C14.3126 10.0429 12.8908 9.85545 11.7579 10.4297L7.50013 6.17186V4.06248C7.50013 3.76951 7.36341 3.49608 7.13294 3.32029L3.07044 0.195294ZM0.777474 15.4726C0.28138 15.9687 0.000130388 16.6445 0.000130388 17.3476C0.000130388 18.8125 1.18763 20 2.65247 20C3.3556 20 4.03138 19.7187 4.52747 19.2226L9.12904 14.6211C8.82435 13.8047 8.77747 12.918 8.98841 12.0781L6.57826 9.66795L0.777474 15.4726ZM20.0001 5.62498C20.0001 5.21483 19.9572 4.81639 19.8751 4.43358C19.7814 3.99608 19.2462 3.88279 18.9298 4.1992L16.4337 6.69529C16.3165 6.81248 16.1564 6.87889 15.9923 6.87889H13.7501C13.4064 6.87889 13.1251 6.59764 13.1251 6.25389V4.00779C13.1251 3.84373 13.1915 3.68358 13.3087 3.56639L15.8048 1.07029C16.1212 0.753888 16.0079 0.218731 15.5704 0.124981C15.1837 0.04295 14.7853 -1.87055e-05 14.3751 -1.87055e-05C11.2697 -1.87055e-05 8.75013 2.51951 8.75013 5.62498V5.65623L12.0822 8.98826C13.4884 8.63279 15.0431 9.00779 16.1447 10.1094L16.7579 10.7226C18.672 9.8242 20.0001 7.87889 20.0001 5.62498ZM2.18763 16.875C2.18763 16.6263 2.2864 16.3879 2.46222 16.2121C2.63803 16.0363 2.87649 15.9375 3.12513 15.9375C3.37377 15.9375 3.61223 16.0363 3.78804 16.2121C3.96386 16.3879 4.06263 16.6263 4.06263 16.875C4.06263 17.1236 3.96386 17.3621 3.78804 17.5379C3.61223 17.7137 3.37377 17.8125 3.12513 17.8125C2.87649 17.8125 2.63803 17.7137 2.46222 17.5379C2.2864 17.3621 2.18763 17.1236 2.18763 16.875Z" fill="white"/>
</svg>
