<svg width="13" height="14" viewBox="0 0 13 14" fill="none" xmlns="http://www.w3.org/2000/svg">
<path d="M6.6875 7C7.61576 7 8.506 6.63125 9.16237 5.97487C9.81875 5.3185 10.1875 4.42826 10.1875 3.5C10.1875 2.57174 9.81875 1.6815 9.16237 1.02513C8.506 0.368749 7.61576 0 6.6875 0C5.75924 0 4.869 0.368749 4.21263 1.02513C3.55625 1.6815 3.1875 2.57174 3.1875 3.5C3.1875 4.42826 3.55625 5.3185 4.21263 5.97487C4.869 6.63125 5.75924 7 6.6875 7ZM5.43789 8.3125C2.74453 8.3125 0.5625 10.4945 0.5625 13.1879C0.5625 13.6363 0.926172 14 1.37461 14H12.0004C12.4488 14 12.8125 13.6363 12.8125 13.1879C12.8125 10.4945 10.6305 8.3125 7.93711 8.3125H5.43789Z" />
</svg>
