<svg width="15" height="14" viewBox="0 0 15 14" fill="none" xmlns="http://www.w3.org/2000/svg">
<path d="M5.32812 1.8125H9.26562C9.38594 1.8125 9.48438 1.91094 9.48438 2.03125V3.125H5.10938V2.03125C5.10938 1.91094 5.20781 1.8125 5.32812 1.8125ZM3.79688 2.03125V3.125H2.04688C1.08164 3.125 0.296875 3.90977 0.296875 4.875V7.5H5.54688H9.04688H14.2969V4.875C14.2969 3.90977 13.5121 3.125 12.5469 3.125H10.7969V2.03125C10.7969 1.18633 10.1105 0.5 9.26562 0.5H5.32812C4.4832 0.5 3.79688 1.18633 3.79688 2.03125ZM14.2969 8.375H9.04688V9.25C9.04688 9.73398 8.65586 10.125 8.17188 10.125H6.42188C5.93789 10.125 5.54688 9.73398 5.54688 9.25V8.375H0.296875V11.875C0.296875 12.8402 1.08164 13.625 2.04688 13.625H12.5469C13.5121 13.625 14.2969 12.8402 14.2969 11.875V8.375Z" fill="#4F46E5"/>
</svg>
