<svg width="40" height="40" viewBox="0 0 40 40" fill="none" xmlns="http://www.w3.org/2000/svg">
<path d="M0 8C0 3.58172 3.58172 0 8 0H32C36.4183 0 40 3.58172 40 8V32C40 36.4183 36.4183 40 32 40H8C3.58172 40 0 36.4183 0 32V8Z" fill="url(#paint0_linear_160_3163)"/>
<g clip-path="url(#clip0_160_3163)">
<path d="M22.5595 10.2922C21.9618 10.1199 21.3396 10.468 21.1673 11.0656L16.6673 26.8156C16.495 27.4133 16.8431 28.0355 17.4407 28.2078C18.0384 28.3801 18.6606 28.032 18.8329 27.4344L23.3329 11.6844C23.5052 11.0867 23.1571 10.4645 22.5595 10.2922ZM25.3931 14.5145C24.9536 14.9539 24.9536 15.6676 25.3931 16.107L28.5325 19.25L25.3896 22.393C24.9501 22.8324 24.9501 23.5461 25.3896 23.9855C25.829 24.425 26.5427 24.425 26.9821 23.9855L30.9196 20.048C31.3591 19.6086 31.3591 18.8949 30.9196 18.4555L26.9821 14.518C26.5427 14.0785 25.829 14.0785 25.3896 14.518L25.3931 14.5145ZM14.6106 14.5145C14.1712 14.075 13.4575 14.075 13.0181 14.5145L9.08057 18.452C8.64111 18.8914 8.64111 19.6051 9.08057 20.0445L13.0181 23.982C13.4575 24.4215 14.1712 24.4215 14.6106 23.982C15.0501 23.5426 15.0501 22.8289 14.6106 22.3895L11.4677 19.25L14.6106 16.107C15.0501 15.6676 15.0501 14.9539 14.6106 14.5145Z" fill="white"/>
</g>
<defs>
<linearGradient id="paint0_linear_160_3163" x1="0" y1="20" x2="40" y2="20" gradientUnits="userSpaceOnUse">
<stop stop-color="#2563EB"/>
<stop offset="1" stop-color="#10B981"/>
</linearGradient>
<clipPath id="clip0_160_3163">
<rect width="22.5" height="18" fill="white" transform="translate(8.75 10.25)"/>
</clipPath>
</defs>
</svg>
